<?xml version="1.0" encoding="utf-8"?>
<!-- Generator: Adobe Illustrator 15.0.2, SVG Export Plug-In . SVG Version: 6.00 Build 0)  -->
<!DOCTYPE svg PUBLIC "-//W3C//DTD SVG 1.1//EN" "http://www.w3.org/Graphics/SVG/1.1/DTD/svg11.dtd">
<svg version="1.1" id="Layer_1" xmlns="http://www.w3.org/2000/svg" xmlns:xlink="http://www.w3.org/1999/xlink" x="0px" y="0px"
	 width="129.713px" height="246.998px" viewBox="0 0 129.713 246.998" enable-background="new 0 0 129.713 246.998"
	 xml:space="preserve">
<g>
	<path fill="#FFFFFF" d="M87.666,188.136c11.364,0,23.733-5.354,32.341-12.595l3.443,2.414l-6.2,15.698
		c-10.999,7.941-25.959,12.609-39.548,12.609c-45.93,0-69.482-27.959-69.482-73.705c0-39.171,23.203-67.319,63.458-67.319
		c43.348,0,59.672,30.555,56.745,70.78H49.139C48.285,164.845,58.256,188.136,87.666,188.136 M71.853,78.016
		c-20.125,0-22.194,29.682-22.712,44.537h40.947C90.086,107.705,88.533,78.016,71.853,78.016"/>
	<path fill="#FFFFFF" d="M27.293,0l-8.928,47.467l10.832,4.487L56.024,1.382C56.024,1.382,38.14,3.97,27.293,0"/>
</g>
</svg>
