<?xml version="1.0" encoding="utf-8"?>
<!-- Generator: Adobe Illustrator 15.0.2, SVG Export Plug-In . SVG Version: 6.00 Build 0)  -->
<!DOCTYPE svg PUBLIC "-//W3C//DTD SVG 1.1//EN" "http://www.w3.org/Graphics/SVG/1.1/DTD/svg11.dtd">
<svg version="1.1" id="Layer_1" xmlns="http://www.w3.org/2000/svg" xmlns:xlink="http://www.w3.org/1999/xlink" x="0px" y="0px"
	 width="141.281px" height="246.998px" viewBox="0 0 141.281 246.998" enable-background="new 0 0 141.281 246.998"
	 xml:space="preserve">
<g>
	<path fill="#FFFFFF" d="M22.756,69.21c6.199,0,12.398-0.865,18.593-1.375v20.71C52.516,75.42,66.964,65.247,84.338,65.247
		c35.252,0,44.208,22.781,44.208,56.44v82.167c-6.533-0.703-12.889-1.568-19.438-1.568c-6.374,0-12.721,0.865-19.263,1.568V133.94
		c0-26.063-3.275-45.054-22.883-45.054c-24.253,0-24.253,32.801-24.253,50.413v64.556c-6.535-0.703-12.9-1.567-19.256-1.567
		c-6.549,0-12.924,0.864-19.27,1.567V67.835C10.202,68.352,16.409,69.21,22.756,69.21"/>
</g>
</svg>
