<?xml version="1.0" encoding="utf-8"?>
<!-- Generator: Adobe Illustrator 15.0.2, SVG Export Plug-In . SVG Version: 6.00 Build 0)  -->
<!DOCTYPE svg PUBLIC "-//W3C//DTD SVG 1.1//EN" "http://www.w3.org/Graphics/SVG/1.1/DTD/svg11.dtd">
<svg version="1.1" id="Layer_1" xmlns="http://www.w3.org/2000/svg" xmlns:xlink="http://www.w3.org/1999/xlink" x="0px" y="0px"
	 width="120.585px" height="246.998px" viewBox="0 0 120.585 246.998" enable-background="new 0 0 120.585 246.998"
	 xml:space="preserve">
<g>
	<path fill="#FFFFFF" d="M79.466,188.136c11.351,0,23.918-5.354,32.517-12.595l3.261,2.414l-6.018,15.698
		c-11.182,7.941-26.148,12.609-39.73,12.609C23.566,206.265,0,178.304,0,132.56c0-39.172,23.216-67.32,63.479-67.32
		c43.508,0,59.84,30.555,56.747,70.779h-79.11C40.254,164.845,50.232,188.136,79.466,188.136 M63.821,78.016
		c-20.306,0-22.195,29.682-22.699,44.537h40.934C82.056,107.705,80.328,78.016,63.821,78.016"/>
</g>
</svg>
