<?xml version="1.0" encoding="utf-8"?>
<!-- Generator: Adobe Illustrator 23.0.0, SVG Export Plug-In . SVG Version: 6.00 Build 0)  -->
<svg version="1.1" id="Слой_1" xmlns="http://www.w3.org/2000/svg" xmlns:xlink="http://www.w3.org/1999/xlink" x="0px" y="0px"
	 viewBox="0 0 280 147" style="enable-background:new 0 0 280 147;" xml:space="preserve">
<style type="text/css">
	.st0{fill:#FFFFFF;}
	.st1{fill-rule:evenodd;clip-rule:evenodd;fill:#FFFFFF;}
</style>
<g>
	<path class="st0" d="M17.9,136.5c-3.7,6.6-9.5,9.6-16.6,10.5L0,142.6c8.3-2.4,7.6-11.8,7.6-23.9v-49c2.2,0.2,4.3,0.5,6.5,0.5
		c2.2,0,4.4-0.3,6.5-0.5v47.3C20.6,123.6,20.8,131.4,17.9,136.5"/>
	<path class="st0" d="M93.6,127.9v3.6c-3.2,1.3-6.4,2.1-9.2,2.1c-9.2,0-11.3-6.3-11.3-14.9V94.1h-6c0.3-2.1,0.3-3.8,0-5.9h6V77.9
		c4-1.7,8-3.6,12.3-5.7v16.1h7.6c-0.3,2.1-0.3,3.8,0,5.9h-7.6v26.2C85.3,126.7,85.7,130.1,93.6,127.9"/>
	<path class="st0" d="M120,127.7c3.7,0,7.8-1.8,10.6-4.1l1.1,0.8l-2,5.1c-3.6,2.6-8.5,4.1-12.9,4.1c-15,0-22.6-9.2-22.6-24.2
		c0-12.8,7.6-22.1,20.7-22.1c14.2,0,19.5,10,18.5,23.2h-25.8C107.2,120.1,110.4,127.7,120,127.7 M114.9,91.6
		c-6.6,0-7.2,9.7-7.4,14.6h13.3C120.8,101.3,120.2,91.6,114.9,91.6"/>
	<path class="st0" d="M52.9,127.7c3.7,0,7.7-1.8,10.5-4.1l1.1,0.8l-2,5.1c-3.6,2.6-8.5,4.1-12.9,4.1c-15,0-22.6-9.2-22.6-24.2
		c0-12.8,7.6-22.1,20.7-22.1c14.1,0,19.4,10,18.5,23.2H40.4C40.1,120.1,43.3,127.7,52.9,127.7 M47.8,91.6c-6.6,0-7.2,9.7-7.4,14.6
		h13.3C53.7,101.3,53.2,91.6,47.8,91.6"/>
	<path class="st0" d="M144.6,88.7c2.1,0,4.2-0.3,6.3-0.5v11.4c1.9-6.7,5.9-12.2,14.8-12.2c-0.4,4.4-0.7,8.5-0.4,12.5l-0.8,0.7
		c-1.2-0.8-3.2-1.2-4.7-1.2c-4,0-7.3,2.1-8.3,6.1c-0.8,2.7-0.6,7.8-0.6,10.7v16.6c-2.1-0.2-4.2-0.5-6.3-0.5c-2.1,0-4.2,0.3-6.3,0.5
		V88.2C140.4,88.4,142.5,88.7,144.6,88.7"/>
	<path class="st0" d="M174.3,88.7c2,0,4-0.3,6.1-0.5V95c3.6-4.3,8.3-7.6,14-7.6c11.5,0,14.4,7.5,14.4,18.5v26.9
		c-2.1-0.2-4.2-0.5-6.3-0.5c-2.1,0-4.1,0.3-6.3,0.5v-22.9c0-8.5-1.1-14.8-7.4-14.8c-7.9,0-7.9,10.8-7.9,16.5v21.2
		c-2.1-0.2-4.2-0.5-6.3-0.5c-2.1,0-4.2,0.3-6.3,0.5V88.2C170.2,88.4,172.2,88.7,174.3,88.7"/>
	<path class="st0" d="M239.2,127.7c3.8,0,7.8-1.8,10.7-4.1l1.1,0.8l-2,5.1c-3.7,2.6-8.6,4.1-13.1,4.1c-15.2,0-23-9.2-23-24.2
		c0-12.8,7.7-22.1,21-22.1c14.3,0,19.8,10,18.8,23.2h-26.2C226.1,120.1,229.4,127.7,239.2,127.7 M233.9,91.6
		c-6.7,0-7.3,9.7-7.5,14.6H240C240,101.3,239.4,91.6,233.9,91.6"/>
	<path class="st0" d="M259.1,117.1V69.8c2.2,0.2,4.4,0.5,6.6,0.5c2.2,0,4.4-0.3,6.6-0.5v49c0,12.1-0.8,21.5,7.7,23.9l-1.3,4.4
		c-7.2-1-13-3.9-16.9-10.5C258.9,131.4,259.1,123.6,259.1,117.1"/>
	<path class="st0" d="M33.3,66l-2.9,15.6l3.5,1.5l8.7-16.6C42.6,66.5,36.8,67.3,33.3,66"/>
	<path class="st1" d="M124.5,7.2h4.6c-0.2-0.4-0.4-0.7-0.6-1h-4.2C124.3,6.5,124.4,6.9,124.5,7.2"/>
	<path class="st1" d="M124.8,8.5h5.1c-0.2-0.3-0.5-0.7-0.7-1h-4.7C124.6,7.8,124.7,8.2,124.8,8.5"/>
	<path class="st1" d="M129.8,12.5h4.3c-0.3-0.2-0.8-0.5-1.4-1h-6.4c0.1,0.2,0.3,0.4,0.4,0.6C127.8,12.2,128.8,12.4,129.8,12.5"/>
	<path class="st1" d="M125.3,9.9h5.6c-0.3-0.3-0.6-0.7-0.9-1h-5.2C125,9.2,125.2,9.5,125.3,9.9"/>
	<path class="st1" d="M150.4,9.9c0-0.3,0-0.7,0.1-1h-4.8c0,0,0,0.1,0,0.1v0c0.3,0.3,0.5,0.6,0.7,0.9H150.4z"/>
	<path class="st1" d="M140.1,3.2c0.1,0.1,0.2,0.2,0.3,0.3l0.9,0.9c0.2,0.2,0.3,0.3,0.5,0.5c0.2,0.1,0.3,0.3,0.5,0.5
		c0.2,0.2,0.4,0.4,0.5,0.5c0.1,0.1,0.2,0.2,0.3,0.3c0.2,0.2,0.3,0.4,0.5,0.5c0.1,0.2,0.3,0.4,0.5,0.5c0,0,0.1,0.1,0.1,0.1
		c0.2-0.1,0.4-0.2,0.5-0.4c0.1,0,0.1-0.1,0.2-0.2c0.1-0.1,0.1-0.2,0.2-0.3c0.1-0.2,0.2-0.4,0.3-0.6V5.8l0.1-0.4v0c0-0.2,0-0.5,0-0.7
		c0-0.4-0.1-0.8-0.2-1.1v0c0-0.1-0.1-0.2-0.1-0.3c-0.1-0.2-0.2-0.4-0.3-0.5h0c0-0.1-0.1-0.2-0.2-0.2v0c-0.4-0.4-0.9-0.7-1.4-0.8
		c0,0,0,0,0,0c-0.1,0-0.2,0-0.4,0h-0.1c-0.1,0-0.3,0-0.4,0c-0.1,0-0.3,0-0.4,0h-0.1c-0.1,0-0.2,0-0.4,0.1h0c-0.1,0-0.2,0.1-0.4,0.1
		c-0.1,0-0.3,0.1-0.4,0.2c-0.3,0.1-0.5,0.4-0.7,0.5v0c-0.1,0.1-0.2,0.2-0.2,0.3C139.7,3,139.9,3.1,140.1,3.2"/>
	<path class="st1" d="M131.2,10.1h-5.8c0.2,0.4,0.4,0.7,0.6,1h6.3C132,10.9,131.6,10.5,131.2,10.1"/>
	<path class="st1" d="M150.5,13.9c0-0.3-0.1-0.6-0.1-1h-1.8c0.2,0.4,0.5,0.7,0.7,1H150.5z"/>
	<path class="st1" d="M112.1,44.4h6.4c0-0.4,0.1-0.7,0.1-1h-4.5C113.6,43.7,112.9,44,112.1,44.4"/>
	<path class="st1" d="M109.8,47h7c0.5-0.2,0.9-0.5,1.4-0.8V46h-8.1L109.8,47z"/>
	<path class="st1" d="M110.6,44.9l-0.3,0.8h8c0-0.4,0.1-0.7,0.1-1h-7.1C111.1,44.7,110.8,44.8,110.6,44.9"/>
	<path class="st1" d="M114.6,43h4.1c0-0.4,0.1-0.7,0.2-1H116C115.6,42.3,115.1,42.7,114.6,43"/>
	<path class="st1" d="M109.7,47.3l-0.4,1h0.2h3c1.1-0.1,2.4-0.4,3.7-1H109.7z"/>
	<path class="st1" d="M110.5,21.3l-1.1,0.5h2.1C111.2,21.6,110.8,21.5,110.5,21.3"/>
	<path class="st1" d="M118.3,54c0-0.1,0-0.2,0-0.3c0-0.3,0-0.7-0.1-1v-0.3c0-0.2,0-0.4,0-0.5v-0.5V51v-1v-0.3c0-0.3,0-0.7,0-1V48
		c-0.1,0-0.3,0-0.4,0c-0.1,0-0.3,0-0.4,0h-0.1c-0.1,0-0.2,0-0.3,0c0,0-0.1,0-0.1,0c-0.1,0-0.2,0-0.3,0.1h0c-0.3,0.1-0.6,0.3-0.8,0.4
		c-0.1,0.1-0.2,0.2-0.3,0.2c0,0.1-0.1,0.2-0.2,0.3c0,0.1-0.1,0.1-0.2,0.2c0,0,0,0,0,0c-0.1,0.2-0.2,0.4-0.3,0.6c0,0.1,0,0.2-0.1,0.2
		c0,0.1,0,0.1,0,0.2v0.1c0,0.1,0,0.1,0,0.2v0c0,0.1,0,0.2,0,0.3v0.2v0.1c0,0.5,0.1,0.9,0.3,1.3c0,0.1,0.1,0.2,0.2,0.3
		c0,0.1,0.1,0.2,0.2,0.3c0,0.1,0.1,0.2,0.2,0.3h0c0.3,0.4,0.7,0.6,1.2,0.8l0,0c0.1,0,0.1,0,0.2,0c0,0,0.1,0,0.2,0c0,0,0,0,0.1,0h0.2
		c0,0,0.1,0,0.1,0h0.3c0.2,0,0.4,0,0.6,0v-0.2V54z"/>
	<path class="st1" d="M128.4,5.9c-0.1-0.4-0.3-0.7-0.4-1h-3.7c0,0.3,0,0.6,0,1H128.4z"/>
	<path class="st1" d="M150.7,7.5H146c-0.1,0.3-0.2,0.7-0.3,1h4.8C150.6,8.2,150.6,7.9,150.7,7.5"/>
	<path class="st1" d="M164.8,23.4h-3.9c-0.1,0.4-0.1,0.7-0.2,1h2.8C163.9,24.1,164.3,23.8,164.8,23.4"/>
	<path class="st1" d="M169.6,20.8h-8.2c0,0.3-0.1,0.7-0.1,1h6.2C168,21.5,169.6,20.8,169.6,20.8"/>
	<path class="st1" d="M166.8,22.1h-5.7c-0.1,0.3-0.1,0.7-0.2,1h4.2C165.7,22.8,166.2,22.4,166.8,22.1"/>
	<path class="st1" d="M163.2,24.7h-2.6c-0.1,0.4-0.2,0.7-0.3,1h1.9C162.5,25.5,162.9,25.1,163.2,24.7"/>
	<path class="st1" d="M146.6,10.1c0.3,0.4,0.6,0.7,0.8,1h2.9c0-0.3,0-0.7,0-1H146.6z"/>
	<path class="st1" d="M170.7,17.6c0,0-1.9-0.4-4.5,0.2h4.5L170.7,17.6z"/>
	<path class="st1" d="M161.6,17.8L161.6,17.8c0.2,0.2,0.5,0.2,0.8,0.2c0.4,0,0.7-0.1,1.1-0.2c0.3-0.1,0.6-0.2,0.8-0.4
		c0.3-0.2,0.5-0.4,0.7-0.6c0.1-0.1,0.1-0.2,0.2-0.3c0-0.1,0.1-0.2,0.1-0.2v0c0,0,0.1-0.1,0.1-0.2l0,0c0-0.1,0-0.1,0-0.2
		c0,0,0-0.1,0.1-0.2c0-0.1,0-0.2,0-0.3v-0.4v-0.4c0-0.1,0-0.2,0-0.3c0-0.2-0.1-0.3-0.1-0.5c0,0,0-0.1,0-0.1c0-0.1-0.1-0.1-0.1-0.2
		c-0.1-0.2-0.2-0.4-0.3-0.5c-0.3-0.4-0.6-0.6-1-0.9c-0.1,0-0.2-0.1-0.3-0.1h0c-0.1,0-0.2,0-0.3-0.1h0c-0.1,0-0.2,0-0.2-0.1H163
		c0,0-0.1,0-0.1,0h-0.3c-0.3,0-0.6,0-0.8,0.1v0.5c0,0.1,0,0.2,0,0.3v0.3v0.5v0.2c0,0.1,0,0.3,0,0.4v0.3v1c0,0.1,0,0.2,0,0.3v1
		c0,0.1,0,0.2,0,0.3C161.7,17.1,161.6,17.5,161.6,17.8"/>
	<path class="st1" d="M162.8,19.1h7.4l0.4-1h-5.4C164.4,18.4,163.6,18.7,162.8,19.1"/>
	<path class="st1" d="M162,26h-1.7c-0.1,0.4-0.2,0.7-0.3,1h1.3C161.4,26.9,161.6,26.5,162,26"/>
	<path class="st1" d="M116.3,41.7h2.6c0.1-0.3,0.2-0.7,0.2-1h-1.8C117,41,116.7,41.3,116.3,41.7"/>
	<path class="st1" d="M150.3,12.5c0-0.3,0-0.6,0-1h-2.7c0.3,0.4,0.5,0.7,0.7,1H150.3z"/>
	<path class="st1" d="M151.2,6.2h-4.8c-0.1,0.3-0.3,0.7-0.4,1h4.8C150.9,6.9,151.1,6.5,151.2,6.2"/>
	<path class="st1" d="M151.8,4.9h-4.7c-0.2,0.3-0.4,0.6-0.6,1h4.8C151.4,5.5,151.6,5.2,151.8,4.9"/>
	<path class="st1" d="M170,19.5h-7.7c-0.2,0.1-0.6,0.6-0.9,1v0.1h8.3L170,19.5z"/>
	<path class="st1" d="M164.8,38.4c-0.3,0.2-0.5,0.5-0.8,0.6h3.4C166.7,38.8,165.8,38.5,164.8,38.4C164.9,38.4,164.9,38.4,164.8,38.4
		"/>
	<path class="st1" d="M169.1,44.4h1.1l2.2-1H166C167,43.5,168,43.9,169.1,44.4"/>
	<path class="st1" d="M168.3,35.4c-0.4,0.4-0.8,0.7-1.1,1c-0.1,0.1-0.2,0.2-0.3,0.3c-0.1,0.1-0.3,0.3-0.5,0.4c0,0.1,0.1,0.2,0.2,0.3
		c0.2,0.3,0.4,0.5,0.7,0.7c0,0,0.1,0,0.1,0.1c0.1,0,0.1,0.1,0.2,0.1c0.1,0,0.1,0.1,0.2,0.1c0,0,0.1,0,0.1,0.1c0.1,0,0.1,0,0.2,0.1
		h0.1c0.1,0,0.3,0.1,0.4,0.1h0.1c0.1,0,0.2,0,0.4,0h0.3c0,0,0.1,0,0.1,0h0.2c0,0,0.1,0,0.1,0c0,0,0.1,0,0.1,0c0,0,0.1,0,0.2,0
		c0,0,0,0,0.1,0c0.1,0,0.1,0,0.2,0c0,0,0,0,0.1,0c0,0,0.1-0.1,0.2-0.1c0,0,0,0,0,0c0.1,0,0.1-0.1,0.2-0.1c0,0,0,0,0,0
		c0.6-0.4,1.1-1,1.3-1.7c0-0.1,0-0.3,0-0.4c0,0,0,0,0,0v-0.4v-0.2c0-0.1,0-0.2,0-0.3c0-0.1,0-0.2,0-0.3c0-0.1,0-0.1,0-0.2
		c0,0,0-0.1,0-0.1c-0.1-0.3-0.2-0.5-0.4-0.7c-0.1-0.1-0.1-0.2-0.2-0.3l-0.3-0.3c0,0,0,0-0.1,0c0-0.1-0.1-0.1-0.2-0.2
		c-0.1-0.1-0.2-0.1-0.3-0.2c-0.2,0.2-0.3,0.4-0.5,0.5c-0.1,0.1-0.3,0.3-0.5,0.5c-0.1,0.1-0.2,0.2-0.3,0.3c-0.3,0.4-0.7,0.7-1,1
		C168.5,35.2,168.4,35.3,168.3,35.4"/>
	<path class="st1" d="M154.8,57.9h-5c0.2,0.3,0.4,0.7,0.7,1h4.6C154.9,58.6,154.8,58.3,154.8,57.9"/>
	<path class="st1" d="M160,42c-0.7,0.5-1.4,0.8-1.8,1h2.8c0.8-0.1,1.9-0.1,2.9,0h9c-0.1-0.1-0.4-0.5-0.9-1H160z"/>
	<path class="st1" d="M155.1,59.2h-4.5c0.2,0.3,0.4,0.7,0.5,1h4.2C155.2,60,155.2,59.6,155.1,59.2"/>
	<path class="st1" d="M154.9,62.9h0.3c0-0.1,0-0.5,0.1-1h-3.5L154.9,62.9z"/>
	<path class="st1" d="M151.2,60.5c0.1,0.3,0.3,0.7,0.4,1h3.7c0-0.3,0-0.6,0-1H151.2z"/>
	<path class="st1" d="M161.8,56c0,0,0-0.1,0-0.1v-0.1c0-0.1,0-0.2,0-0.2v0c0-0.1,0-0.3,0-0.5v0c0-0.1,0-0.3,0-0.4
		c-2,0-4.2,0-6.5-0.1c0,0.1,0,0.2,0,0.3V55c0,0.2,0,0.4,0,0.5v0c0,0,0,0.1,0,0.2c0,0,0,0,0,0.1c0,0,0,0.1,0,0.1c0,0.1,0,0.1,0,0.2
		s0,0,0,0.1c0.1,0.2,0.2,0.4,0.3,0.6l0,0c0,0.1,0.1,0.1,0.2,0.2v0c0.1,0,0.1,0.1,0.2,0.2v0c0.1,0,0.2,0.1,0.3,0.2
		c0.2,0.2,0.5,0.3,0.8,0.5h0c0.1,0,0.2,0,0.3,0.1h0c0.1,0,0.2,0,0.3,0.1h0.1h0.4h0.4h0.1c0.1,0,0.2,0,0.3-0.1h0.1
		c0.1,0,0.2,0,0.3-0.1h0c0.1,0,0.2-0.1,0.3-0.1c0.2-0.1,0.3-0.2,0.5-0.3c0.1,0,0.2-0.1,0.3-0.2v0c0.1,0,0.2-0.1,0.2-0.2c0,0,0,0,0,0
		c0-0.1,0.1-0.1,0.2-0.2v0c0.1-0.2,0.2-0.4,0.3-0.6c0,0,0,0,0-0.1C161.7,56.1,161.7,56.1,161.8,56"/>
	<path class="st1" d="M115.3,27.4h-0.9c0.2,0,0.5,0.1,0.7,0.1C115.2,27.5,115.2,27.5,115.3,27.4"/>
	<path class="st1" d="M111.9,30.5L111.9,30.5c0.2-0.2,0.4-0.3,0.5-0.5c0.1-0.1,0.2-0.2,0.3-0.3c0.2-0.2,0.4-0.4,0.6-0.5
		c0.2-0.2,0.3-0.4,0.5-0.5c0-0.1-0.1-0.2-0.2-0.4c0,0-0.1-0.1-0.1-0.2c0,0-0.1,0-0.1,0c0,0-0.1-0.1-0.1-0.1c0,0-0.1,0-0.1-0.1
		c0,0-0.1,0-0.2-0.1c0,0,0,0-0.1,0c-0.1,0-0.1,0-0.2-0.1c0,0-0.1,0-0.1,0c0,0-0.1,0-0.2,0h-0.1c-0.1,0-0.2,0-0.3,0c0,0-0.1,0-0.1,0
		h-0.4H111c0,0-0.1,0-0.1,0h-0.2c-0.1,0-0.1,0-0.2,0.1h-0.1c-0.1,0-0.2,0.1-0.2,0.1c0,0,0,0,0,0c-0.1,0-0.2,0-0.3,0.1v0
		c-0.3,0.1-0.6,0.3-0.7,0.5l0,0c-0.3,0.3-0.5,0.6-0.7,1c0,0.1-0.1,0.2-0.1,0.3c-0.1,0.2-0.1,0.4-0.1,0.6c0,0.1,0,0.2,0,0.4
		c0,0.1,0,0.2,0,0.4c0,0.5,0.1,1,0.4,1.3c0.1,0.2,0.2,0.4,0.4,0.5c0,0,0,0.1,0.1,0.1c0,0,0,0,0.1,0.1c0,0,0.1,0.1,0.2,0.2
		c0.2-0.2,0.4-0.4,0.6-0.6c0.1-0.1,0.2-0.2,0.3-0.3c0.1-0.2,0.3-0.4,0.5-0.5c0,0,0.1-0.1,0.1-0.1c0.1-0.1,0.2-0.3,0.4-0.4
		c0.1-0.1,0.2-0.2,0.3-0.3C111.5,30.9,111.7,30.7,111.9,30.5"/>
	<path class="st1" d="M118.8,24.7h-9.8c0.4,0.4,0.9,0.7,1.4,1h6.9C117.8,25.4,118.3,25,118.8,24.7"/>
	<path class="st1" d="M121,23.4h-13.5c0.2,0.3,0.6,0.6,1,1h10.6C119.9,24,120.5,23.6,121,23.4"/>
	<path class="st1" d="M162.3,40.4h7.8c-0.6-0.4-1.2-0.7-1.9-1h-4.5C163.2,39.7,162.8,40,162.3,40.4"/>
	<path class="st1" d="M160.4,41.7h11.3c-0.3-0.3-0.7-0.7-1.3-1h-8.6C161.4,41,160.9,41.4,160.4,41.7"/>
	<path class="st1" d="M117,26h-6.1c0.7,0.4,1.5,0.8,2.5,1h2.3C116.1,26.7,116.5,26.4,117,26"/>
	<path class="st1" d="M173,27.1c0.4-0.5,0.7-1,1-1.5c0,0,0,0-0.1,0h0c-0.1-0.1-0.2-0.1-0.4-0.2v0c-0.2,0-0.4-0.1-0.6-0.2h0
		c-0.2-0.1-0.5-0.2-0.8-0.2c0,0,0,0,0,0c-0.1,0-0.3,0-0.5-0.1c-1.1-0.2-2.5-0.3-4.1,0c-1,0.2-2.1,0.5-3.4,1
		c-0.9,0.4-1.9,0.9-2.9,1.6l0,0h-1.1c-0.1,0.3-0.2,0.6-0.3,1l-0.4,0.4l-1.1,1l-1.1,1l-0.3,0.3l-0.3,0.3c0,0,0.1-0.1,0.2-0.3
		c0,0,0.1-0.1,0.1-0.2c0.1-0.2,0.3-0.5,0.4-0.9c0.2-0.4,0.4-1,0.6-1.6v0c0-0.1,0.1-0.3,0.2-0.5v0c0-0.1,0.1-0.3,0.1-0.5
		c0.1-0.3,0.1-0.5,0.2-0.8c0,0,0,0,0,0c0-0.2,0.1-0.4,0.1-0.5c0-0.1,0-0.2,0.1-0.3c0-0.1,0-0.3,0.1-0.5c0-0.2,0.1-0.4,0.1-0.5l0,0
		c0-0.1,0-0.2,0-0.3v0c0-0.1,0-0.3,0.1-0.5v0c0-0.1,0-0.3,0-0.5c0-0.3,0.1-0.5,0.1-0.8v0c0-0.1,0-0.3,0-0.5c0.1-0.5,0.1-1,0.2-1.6v0
		c0-0.3,0-0.7,0.1-1c0.1-1.3,0.1-2.7,0.1-4.3v0c0-0.7,0-1.5,0-2.3v-0.3c0-0.3,0-0.7,0-1v-0.3c0-0.4,0-0.9-0.1-1.3
		c0-0.5,0-0.9-0.1-1.3v0c0-0.4-0.1-0.9-0.1-1.3v0c0-0.3-0.1-0.6-0.1-1V6v0c-0.1-0.4-0.2-0.7-0.2-1c0-0.1-0.1-0.3-0.1-0.4
		c0,0-0.1,0-0.3,0.1c-0.3,0.1-0.9,0.3-1.6,0.7h0c-0.4,0.2-0.8,0.5-1.4,0.9c0,0-0.1,0.1-0.2,0.2c0,0,0,0-0.1,0l-0.2,0.2l0,0
		c-0.1,0.1-0.2,0.1-0.2,0.2c0,0,0,0-0.1,0c-0.3,0.3-0.6,0.6-0.9,1h0c-0.1,0.2-0.2,0.4-0.4,0.5c-0.3,0.4-0.6,0.8-0.8,1.3
		c-0.1,0.3-0.2,0.5-0.4,0.8v0c-0.1,0.2-0.2,0.3-0.2,0.5c-0.1,0.3-0.2,0.5-0.3,0.8c0,0,0,0,0,0.1c0,0.1-0.1,0.3-0.1,0.5
		c-0.1,0.3-0.2,0.5-0.2,0.7c0,0.2-0.1,0.3-0.1,0.5c0,0,0,0.1,0,0.2c0,0.1,0,0.2-0.1,0.3c0,0.2,0,0.3-0.1,0.5c0,0,0-0.2-0.1-0.5h-1.1
		c0.3,0.4,0.5,0.8,0.6,1h0.5l0,0.3h-0.2c0.1,0.2,0.1,0.3,0.1,0.3l-0.2,2.6l0,0.7v0.3l0,0.9c0-0.2-0.1-0.3-0.1-0.5
		c-0.1-0.2-0.1-0.5-0.2-0.7c-0.1-0.1-0.1-0.3-0.2-0.5c0-0.2-0.1-0.4-0.2-0.5v0c-0.1-0.2-0.3-0.5-0.4-0.8c-0.1-0.3-0.2-0.5-0.4-0.8
		c-0.2-0.4-0.4-0.7-0.6-1c0-0.1-0.1-0.2-0.1-0.3h0c-0.3-0.5-0.6-0.9-0.9-1.3c-0.3-0.5-0.6-0.9-1-1.4c-0.2-0.3-0.5-0.7-0.8-1h0
		c0-0.1-0.1-0.2-0.2-0.3c-0.3-0.4-0.6-0.7-0.9-1c-0.1-0.1-0.2-0.2-0.2-0.3h0c-0.3-0.4-0.6-0.7-0.9-1c-0.1-0.1-0.2-0.2-0.3-0.3
		c-0.3-0.4-0.7-0.7-1-1c-0.1-0.1-0.2-0.2-0.3-0.3c-0.4-0.4-0.7-0.7-1.1-1c-0.8-0.8-1.6-1.5-2.4-2.1c-0.2-0.2-0.4-0.4-0.6-0.5v0
		c-0.1-0.1-0.2-0.2-0.3-0.3c-0.2-0.2-0.5-0.4-0.7-0.5c-0.3-0.3-0.7-0.5-1-0.8c-0.4-0.3-0.7-0.6-1-0.8c-0.4-0.3-0.7-0.6-1-0.8
		c0,0-0.1,0-0.1-0.1c0,0-0.1,0-0.1-0.1c0,0,0,0-0.1,0l0,0c0,0,0,0,0,0l0,0c0,0-0.1,0.2-0.2,0.4c0,0,0,0.1,0,0.1
		c0,0.1-0.1,0.2-0.1,0.3c0,0.1,0,0.1,0,0.2h0c0,0.1,0,0.2,0,0.2l0,0c-0.2,0.5-0.4,1.3-0.5,2.1c0,0.5,0,0.9,0,1.4c0,0.1,0,0.3,0,0.5
		v0c0,0.2,0,0.3,0,0.5v0c0,0.2,0.1,0.5,0.1,0.8c0,0.3,0.1,0.5,0.2,0.8c0,0.1,0.1,0.3,0.1,0.5c0.2,0.7,0.5,1.4,0.8,2.1v0
		c0.2,0.3,0.4,0.6,0.6,1c0,0.1,0.1,0.2,0.2,0.3c0.2,0.4,0.5,0.8,0.7,1.2l0.1,0.1h-3.2c2,0.4,3.2,0.8,3.6,1h0.2l0.1,0.1l0.2,0.2
		l0.1,0.1l2.5,2.5v0v0c-0.7-0.3-1.4-0.6-2.1-0.8h0c-0.2-0.1-0.5-0.2-0.7-0.3c-0.6-0.2-1.2-0.4-1.8-0.5c-0.2-0.1-0.5-0.1-0.7-0.2
		h-0.1c-0.5-0.1-0.9-0.2-1.4-0.3h0c-0.2,0-0.5-0.1-0.7-0.1c-0.5-0.1-1-0.2-1.5-0.2h0c-2.2-0.3-4.3-0.5-6.3-0.5
		c-2.9,0-5.5,0.1-7.3,0.3c-1.4,0.1-2.2,0.3-2.4,0.3h0h0h0c-0.7,0.1-1.4,0.3-2,0.4c0,0,0,0.1,0.1,0.4c0,0.1,0,0.2,0.1,0.3
		c0,0.1,0,0.1,0.1,0.2c0,0.1,0.1,0.1,0.1,0.2l0,0c0,0,0,0.1,0.1,0.2v0c0.1,0.2,0.3,0.5,0.5,0.8l0,0c0,0.1,0.1,0.1,0.1,0.2
		c0,0,0,0,0,0c0,0.1,0.1,0.1,0.1,0.2l0,0c0.1,0.2,0.3,0.4,0.4,0.5c0,0.1,0.1,0.2,0.2,0.3c0,0.1,0.1,0.1,0.2,0.2c0,0,0,0.1,0,0.1
		l0.2,0.2l0,0c0.2,0.2,0.4,0.4,0.6,0.5c0.2,0.2,0.4,0.3,0.7,0.5h0c0.1,0.1,0.2,0.2,0.3,0.3h0c0.1,0.1,0.2,0.2,0.4,0.3
		c0.3,0.2,0.7,0.4,1,0.5c0.2,0.1,0.4,0.2,0.6,0.3h0c0.2,0.1,0.3,0.2,0.6,0.2c0,0,0,0,0,0c0.2,0,0.4,0.1,0.6,0.2
		c0.3,0.1,0.6,0.2,0.9,0.3c0.3,0.1,0.6,0.1,0.8,0.2c0.1,0,0.2,0,0.3,0c0.1,0,0.2,0,0.3,0.1c0.2,0,0.4,0.1,0.7,0.1
		c0,0-4.2,1.2-8.8-0.5h-3.4l-1.7,0.8c0,0,0,0.1,0.2,0.3h14.3c0.5-0.2,0.7-0.3,0.7-0.3l4.8-0.1c-0.9,0.4-1.8,0.7-2.6,1.1
		c-0.6,0.3-1.1,0.5-1.6,0.8c-0.3,0.2-0.6,0.4-0.9,0.5c-0.3,0.1-0.6,0.3-0.9,0.5c-0.1,0.1-0.3,0.2-0.5,0.3c-0.3,0.2-0.5,0.4-0.8,0.5
		c0,0,0,0-0.1,0c-0.2,0.1-0.5,0.3-0.7,0.5c-0.1,0.1-0.3,0.2-0.4,0.3c-0.2,0.1-0.5,0.3-0.7,0.5c0,0,0,0,0,0c-0.4,0.2-0.7,0.5-1.1,0.8
		c-0.2,0.1-0.4,0.3-0.6,0.5c0,0,0,0-0.1,0c-0.5,0.4-1,0.8-1.5,1.3c0,0,0,0-0.1,0c-0.2,0.2-0.4,0.3-0.5,0.5c-0.3,0.3-0.6,0.5-0.8,0.8
		c0,0,0,0-0.1,0c-0.4,0.4-0.9,0.9-1.3,1.3c0,0,0,0-0.1,0c-0.2,0.3-0.5,0.5-0.7,0.8h0c-0.4,0.5-0.8,0.9-1.2,1.3h0
		c-0.3,0.4-0.6,0.7-0.9,1c-0.4,0.5-0.7,0.9-1.1,1.3c-0.4,0.5-0.7,1-1,1.3h0c0,0.1-0.1,0.2-0.2,0.3v0c-0.1,0.1-0.2,0.3-0.3,0.4
		c-0.1,0.2-0.2,0.4-0.3,0.5c0,0,0.4,0.3,1.1,0.5h0c0.4,0.1,0.8,0.3,1.4,0.4c0.1,0,0.2,0,0.4,0.1h0c0.1,0,0.3,0,0.4,0h0
		c0.1,0,0.3,0,0.5,0c1,0.1,2.2,0,3.5-0.3h0c0.2,0,0.4-0.1,0.7-0.2c0.5-0.1,1-0.3,1.5-0.5c0,0,0.1,0,0.2-0.1c0.1,0,0.2-0.1,0.4-0.1
		c0.1,0,0.2-0.1,0.3-0.1c0.1,0,0.2-0.1,0.2-0.1c0.1-0.1,0.3-0.1,0.4-0.2c0,0,0.1-0.1,0.1-0.1c0.3-0.2,0.7-0.4,0.9-0.5
		c0.1,0,0.1-0.1,0.2-0.1c0.2-0.1,0.4-0.2,0.6-0.4c0,0-0.1,0.2-0.3,0.5h0.9c0.1-0.4,0.2-0.7,0.3-1c0-0.1,0-0.2,0.1-0.3
		c0.1-0.4,0.2-0.7,0.3-1c0-0.1,0-0.2,0.1-0.3c0.1-0.2,0.2-0.5,0.2-0.7c0,0,0,0,0-0.1c0.2-0.5,0.2-0.5,0.3-0.6c0-0.2,0.1-0.4,0.2-0.6
		c0-0.1,0.1-0.3,0.2-0.4c0-0.1,0-0.2,0.1-0.3c0.2-0.4,0.3-0.7,0.5-1c0-0.1,0.1-0.2,0.1-0.3c0.1-0.2,0.2-0.4,0.3-0.6
		c0.1-0.1,0.2-0.3,0.2-0.5c0.1-0.1,0.1-0.2,0.2-0.3c0.1-0.2,0.2-0.4,0.3-0.5c0.2-0.3,0.4-0.6,0.6-0.8c0.2-0.4,0.5-0.7,0.7-1
		c0.1-0.1,0.2-0.2,0.2-0.3c0.2-0.2,0.3-0.4,0.5-0.5l0,0l0.5-0.5c0.1-0.1,0.2-0.2,0.3-0.3c0.2-0.2,0.4-0.4,0.6-0.5
		c0.2-0.1,0.4-0.3,0.6-0.5c0.1-0.1,0.3-0.2,0.4-0.3c0.6-0.4,1.2-0.7,1.7-1c0.2-0.1,0.4-0.2,0.6-0.3c0.6-0.3,1.1-0.5,1.7-0.6
		c0.1,0,0.3-0.1,0.4-0.1h0c0.1,0,0.2-0.1,0.4-0.1h0c0.2-0.1,0.5-0.1,0.7-0.2c1.5-0.3,2.9-0.3,4-0.2c0.3,0,0.7,0.1,1.1,0.2
		c0.1,0,0.2,0,0.3,0.1c0.1,0,0.2,0,0.3,0.1h0c0.1,0,0.2,0,0.3,0.1c0.1,0,0.2,0.1,0.4,0.1c0.1,0,0.3,0.1,0.4,0.1
		c0.1,0,0.2,0.1,0.4,0.1c0.3,0.1,0.6,0.2,0.8,0.4c0.2,0.1,0.4,0.2,0.6,0.3c0.1,0.1,0.3,0.2,0.5,0.2c0.1,0.1,0.3,0.2,0.4,0.3h0
		c0.1,0.1,0.3,0.2,0.4,0.3c0.2,0.1,0.3,0.2,0.5,0.3c0.1,0.1,0.3,0.2,0.4,0.3c0.2,0.2,0.4,0.3,0.7,0.5l0,0c0.2,0.2,0.4,0.4,0.6,0.5
		c0.1,0.1,0.2,0.2,0.3,0.3c0.2,0.1,0.3,0.3,0.5,0.5h0c0.1,0.2,0.3,0.4,0.5,0.5c0,0.1,0.1,0.2,0.2,0.3c0.1,0.1,0.2,0.3,0.4,0.5
		c0.1,0.2,0.2,0.4,0.3,0.5c0,0.1,0.1,0.2,0.1,0.3c0.1,0.2,0.2,0.3,0.2,0.5c0.1,0.2,0.1,0.4,0.2,0.5c0,0.1,0,0.2,0.1,0.3
		c0,0.2,0.1,0.3,0.1,0.5h0v0V32c0,0,0,0,0,0c0,0.1,0,0.2,0,0.4c0,0.1,0,0.2,0,0.3v1V34c0,0.1,0,0.3,0,0.5v0c0,0.1,0,0.3,0,0.5
		c0,0.3,0,0.5-0.1,0.8v0c0,0,0.1,0.2,0.1,0.5c0.1,0.4,0.3,0.9,0.5,1.6c0,0.1,0.1,0.3,0.1,0.5c0,0,0,0,0,0.1c0.1,0.3,0.2,0.5,0.3,0.8
		c0.1,0.5,0.3,0.9,0.5,1.3c0.2,0.5,0.4,0.9,0.6,1.4h0c0.4,0.8,0.8,1.6,1.4,2.4c0.1,0.1,0.1,0.2,0.2,0.3c0.1,0.2,0.2,0.3,0.4,0.5l0,0
		c0.1,0.2,0.3,0.3,0.4,0.5c0.2,0.3,0.5,0.5,0.7,0.8c0,0,0.2,0.6-1.1-0.4c-0.1-0.1-0.3-0.2-0.5-0.4c0-0.1-0.1-0.1-0.2-0.2h0
		c-0.2-0.2-0.5-0.5-0.8-0.8c-0.1-0.1-0.2-0.2-0.3-0.3c-0.3-0.3-0.7-0.7-1-1c-0.1-0.1-0.2-0.2-0.3-0.3c-0.3-0.4-0.7-0.7-1-1
		c-0.1-0.1-0.2-0.2-0.3-0.3l-0.5-0.5c-0.2-0.2-0.4-0.4-0.5-0.5c-0.1-0.1-0.2-0.2-0.4-0.3c-0.1-0.1-0.2-0.3-0.4-0.4
		c-0.1,0-0.1-0.1-0.2-0.2c0-0.1-0.1-0.1-0.1-0.2c-0.2-0.2-0.5-0.5-0.6-0.6c0,0-0.1,0-0.1-0.1c0,0,0,0,0,0c-0.5-0.5-0.8-0.8-0.8-0.8
		h0c-0.1,0-0.4-0.1-0.7-0.3c-0.1,0-0.2-0.1-0.4-0.2c-0.1-0.1-0.3-0.1-0.4-0.2c-0.3-0.2-0.6-0.4-0.9-0.6c-0.1-0.1-0.2-0.2-0.3-0.3
		c-0.2-0.2-0.5-0.5-0.7-0.8c0-0.1-0.1-0.2-0.2-0.3c0-0.1-0.1-0.2-0.2-0.3c-0.1-0.1-0.2-0.3-0.3-0.5v0c-0.1-0.1-0.2-0.3-0.3-0.5
		c0-0.1-0.1-0.2-0.1-0.3c-0.1-0.2-0.2-0.4-0.2-0.6l-0.1-0.4c-0.1-0.3-0.1-0.5-0.2-0.8c0,0,0,0,0,0c0-0.2-0.1-0.3-0.1-0.5
		c0-0.1-0.1-0.2-0.1-0.3c-0.2-0.5-0.4-1-0.6-1.3c0-0.1-0.1-0.2-0.1-0.3v0c0-0.1-0.1-0.2-0.2-0.2v0c-0.1-0.1-0.2-0.3-0.4-0.5
		c-0.1-0.1-0.2-0.2-0.3-0.3c-0.1-0.1-0.2-0.2-0.3-0.2c0,0,0,0,0,0c-0.1,0-0.2-0.1-0.3-0.2c0,0,0,0,0,0c-0.1,0-0.2-0.1-0.3-0.1h0
		c-0.3-0.1-0.5-0.2-0.8-0.2h0c-0.1,0-0.3,0-0.4-0.1h-0.1h-0.5h-0.1h-0.5c-0.1,0-0.2,0-0.4,0h-0.1c0,0-0.1,0-0.2,0c0,0-0.1,0-0.2,0
		c0,0-0.1,0-0.1,0c-0.1,0-0.1,0-0.2,0.1h-0.1c-0.1,0-0.1,0.1-0.2,0.1h0c-0.1,0-0.2,0.1-0.3,0.1h0c-0.1,0.1-0.2,0.1-0.3,0.2
		c-0.2,0.1-0.5,0.3-0.7,0.5c-0.1,0-0.2,0.1-0.2,0.2h0c-0.1,0.1-0.1,0.1-0.2,0.2v0c-0.1,0.1-0.1,0.1-0.2,0.2v0
		c-0.1,0.1-0.1,0.2-0.2,0.3c0,0.1-0.1,0.2-0.2,0.3c-0.1,0.1-0.2,0.3-0.3,0.5c0,0,0,0,0,0.1c-0.1,0.2-0.2,0.5-0.3,0.8
		c0,0.2-0.1,0.3-0.2,0.5v0c0,0.2-0.1,0.5-0.2,0.8c0,0.2,0,0.4,0,0.5c0,0.2,0,0.5,0,0.8c0,0.6,0,1.2,0.2,1.8c0,0.2,0.1,0.4,0.1,0.5
		c0.1,0.4,0.2,0.9,0.4,1.3v0c0,0.1,0.1,0.2,0.1,0.3c0,0.2,0.1,0.4,0.2,0.5v0c0.1,0.2,0.2,0.3,0.3,0.5c0,0.1,0.1,0.2,0.1,0.3
		c0,0.1,0.1,0.1,0.1,0.2c0.1,0.3,0.3,0.5,0.5,0.8c0.2,0.3,0.4,0.5,0.6,0.8h0c0.5,0.6,1,1.3,1.5,1.9c0.1,0.1,0.2,0.2,0.3,0.3
		c0.3,0.4,0.7,0.7,1.1,1c0.1,0.1,0.2,0.2,0.3,0.3c0.4,0.4,0.8,0.7,1.3,1c0.1,0.1,0.2,0.2,0.4,0.3c0.5,0.4,1,0.7,1.5,1
		c0.7,0.5,1.5,0.9,2.3,1.3c0.2,0.1,0.4,0.2,0.6,0.3v0c1,0.5,2.1,0.9,3,1.3c0.6,0.2,1.2,0.4,1.7,0.5c0.6,0.2,1.1,0.4,1.6,0.5
		c0.1,0,0.3,0,0.5,0.1c0,0,0.7,0.1,1.9,0.3h0c0.3,0,0.6,0.1,1,0.1h0.1c0.2,0,0.3,0,0.5,0.1c0.2,0,0.4,0,0.6,0h0.1
		c0.1,0,0.3,0,0.5,0.1h0.1c0.2,0,0.4,0,0.7,0h0.1c0.2,0,0.4,0,0.6,0c0,0,0.1,0,0.1,0c0.2,0,0.5,0,0.7,0h0.1c0.2,0,0.4,0,0.6,0h0.2
		c0.3,0,0.5,0,0.8,0h0.1c0.2,0,0.4,0,0.7,0h0.2c0.2,0,0.5,0,0.8,0h0.1h0.8c0,0,0.1,0,0.2,0h0.9c0,0-0.1,0-0.1-0.1c1.4,0,2.9,0,4.5,0
		c1,0,2.1-0.1,3.2-0.2c0.7-0.1,1.3-0.2,1.9-0.3c0,0-1.5-6.5-10.6-8.2h-0.1c0.1,0,0.1,0,0.2,0h-1.4H153c0,0,0.3-0.1,0.8-0.4
		c0.4-0.2,1-0.5,1.8-1c0.1-0.1,0.3-0.2,0.5-0.3c0.1,0,0.2-0.1,0.3-0.2l0,0c0.1-0.1,0.3-0.1,0.4-0.2h0c0.1-0.1,0.3-0.2,0.4-0.3h0
		c0.1-0.1,0.2-0.2,0.4-0.3c0,0,0,0,0,0c0.2-0.1,0.3-0.2,0.5-0.3c0.2-0.1,0.5-0.3,0.7-0.5c0,0,0,0,0.1-0.1c0.9-0.6,2-1.3,3-2.1
		c0.5-0.4,0.9-0.7,1.4-1c0.3-0.3,0.7-0.5,1-0.8c0.2-0.2,0.5-0.4,0.7-0.6c0.5-0.4,1-0.8,1.4-1.2c0.6-0.5,1.2-1.1,1.7-1.6
		c0.4-0.4,0.7-0.7,1-1c0.1-0.1,0.2-0.2,0.3-0.3v0c0.4-0.5,0.8-0.9,1.2-1.3c0,0,0,0,0,0c0.5-0.6,1-1.3,1.4-1.8
		c0.1-0.2,0.2-0.4,0.4-0.5C172.8,27.3,172.9,27.2,173,27.1 M152,19.1c0.1-0.3,0.2-0.7,0.3-1c0-0.1,0-0.2,0.1-0.3
		c0-0.1,0.1-0.3,0.2-0.5c0,0,0,0,0,0c0.1-0.2,0.1-0.3,0.2-0.5c0-0.1,0.1-0.2,0.1-0.3c0.1-0.2,0.2-0.4,0.3-0.5c0,0,0,0,0,0
		c0.1-0.2,0.2-0.3,0.4-0.5c0-0.1,0.1-0.2,0.2-0.3c0-0.1,0.1-0.2,0.2-0.2c0.1-0.1,0.2-0.2,0.3-0.2V15c0,0,0,0.1,0,0.1
		c0,0.2,0,0.5,0,0.9c0,0.1,0,0.2,0,0.3c0,0.1,0,0.3,0,0.4c0,0.3,0,0.6,0.1,0.9c0,0.1,0,0.3,0,0.4c0,0.1,0,0.3,0,0.4
		c0,0.2,0,0.5,0,0.6c0,0.3,0,0.6,0,0.9v0.5v0.3v0.5c0,0,0,0.1,0,0.2v0.4c0,0.1,0,0.2,0,0.3c0,0.2,0,0.4,0,0.5v0.1c0,0.1,0,0.3,0,0.4
		c0,0.1,0,0.2,0,0.3c0,0.2-0.1,0.4-0.1,0.5c0,0.2,0,0.4-0.1,0.5c0,0.1,0,0.2-0.1,0.3c-0.1,0.4-0.2,0.7-0.3,1c0,0.1-0.1,0.2-0.1,0.3
		c0,0,0,0.1,0,0.1c0,0,0,0.1-0.1,0.2c0,0,0,0.1,0,0.2c0,0,0,0,0,0.1c0,0-0.1,0.1-0.1,0.2c0,0,0,0,0,0c0,0.1,0,0.1-0.1,0.2
		c0,0,0,0.1,0,0.1c0,0-0.1,0.1-0.1,0.2c0,0-0.1,0.1-0.1,0.2v0c0,0-0.1,0.1-0.2,0.2v0c0,0-0.1,0.1-0.2,0.2v0
		c-0.1,0.1-0.2,0.2-0.2,0.3c-0.1,0.1-0.2,0.2-0.3,0.3c-0.3,0.3-0.6,0.5-1,0.8h0c-0.1,0.1-0.2,0.2-0.4,0.3c-0.2,0.1-0.3,0.2-0.5,0.3
		c-0.1,0-0.2,0.1-0.3,0.1c-0.1,0-0.2,0.1-0.3,0.2c0,0,0.9-0.9,1.5-2.4c0,0,0,0,0,0c0-0.2,0.1-0.3,0.2-0.5c0.1-0.3,0.1-0.5,0.2-0.8
		c0-0.2,0-0.4,0.1-0.5v0v-0.7v-0.4v-0.2v-0.3c0-0.2,0-0.3,0-0.5v-0.5v-0.3v-1c0-0.1,0-0.2,0-0.3v-0.5v-0.1c0-0.1,0-0.3,0-0.5
		c0-0.1,0-0.2,0-0.3c0-0.4,0.1-0.7,0.2-1C152,19.3,152,19.2,152,19.1 M140.3,13.3L140.3,13.3v-0.5v-0.3V12v0c0-0.2,0-0.4,0.1-0.5
		v-0.3c0,0,0.1,0.1,0.2,0.3c0,0,0,0.1,0.1,0.2h0c0.3,0.4,0.7,1,1.3,1.6h0c0.2,0.2,0.4,0.5,0.7,0.8c0.1,0.2,0.3,0.3,0.5,0.5
		c0.3,0.3,0.5,0.5,0.8,0.8c0.4,0.4,0.7,0.7,1.1,1c0,0,0.1,0.1,0.2,0.2c0,0,0,0.1,0.1,0.1c0.1,0.2,0.3,0.3,0.5,0.5
		c0.2,0.2,0.4,0.4,0.6,0.5c0.1,0.1,0.2,0.2,0.3,0.3c0.2,0.2,0.3,0.3,0.5,0.5c0,0,0,0,0,0c0.1,0.2,0.3,0.3,0.5,0.5
		c0.1,0.1,0.1,0.2,0.2,0.3c0.3,0.3,0.6,0.7,0.8,1c0,0.1,0.1,0.2,0.2,0.3c0.2,0.3,0.5,0.7,0.7,1c0,0.1,0.1,0.2,0.1,0.3
		c0.1,0.2,0.2,0.3,0.2,0.5v0c0.1,0.1,0.1,0.3,0.2,0.5c0,0.1,0,0.2,0.1,0.3c0,0.2,0.1,0.4,0.1,0.5v0c0,0.1,0.1,0.3,0.1,0.5
		c0,0.1,0,0.2,0,0.3c0,0.4,0.1,0.7,0,1V26c0,0.4-0.1,0.7-0.2,1c0,0.1-0.1,0.2-0.1,0.3c0,0.1,0,0.1-0.1,0.2c0,0.1-0.1,0.2-0.1,0.3
		c0,0,0,0.1,0,0.2c-0.1,0.1-0.1,0.2-0.2,0.3v0c0,0.1-0.1,0.2-0.2,0.3c-0.1,0.1-0.2,0.2-0.3,0.4c0,0-0.1,0.1-0.1,0.2
		c0,0-0.1,0.1-0.1,0.1c-0.1,0.1-0.2,0.2-0.3,0.4v-0.1v-0.1c0,0,0-0.1,0-0.1v0v-0.1v0v-0.1v0V29c0,0,0,0,0,0v-0.2
		c0-0.4,0-0.8-0.1-1.3c0-0.3,0-0.5-0.1-0.8c0-0.2-0.1-0.4-0.1-0.5v0c-0.2-0.6-0.5-1.3-0.9-2c0,0,0,0,0,0c-0.1-0.1-0.2-0.3-0.3-0.4
		c-0.2-0.3-0.4-0.5-0.6-0.7l0,0c0-0.1-0.1-0.1-0.2-0.2v0c-0.1,0-0.2-0.1-0.3-0.2c-0.2-0.3-0.5-0.5-0.8-0.8c-0.1-0.1-0.2-0.2-0.3-0.3
		c0,0,0,0,0,0c-0.2-0.1-0.4-0.3-0.6-0.5c-0.1-0.1-0.2-0.2-0.3-0.3c-0.4-0.3-0.7-0.6-1-1c0-0.1-0.1-0.2-0.2-0.3
		c-0.1-0.1-0.3-0.3-0.4-0.5c-0.1-0.2-0.3-0.4-0.4-0.5c-0.1-0.1-0.1-0.2-0.2-0.3c-0.2-0.3-0.4-0.7-0.6-1c0-0.1-0.1-0.2-0.1-0.3
		c-0.1-0.2-0.1-0.3-0.2-0.5c0-0.2-0.1-0.4-0.2-0.5c0-0.1,0-0.2-0.1-0.3c-0.1-0.4-0.1-0.7-0.2-1c0-0.1,0-0.2,0-0.3
		C140.3,13.7,140.3,13.5,140.3,13.3 M147.7,28.4c-0.1-0.1-0.2-0.3-0.3-0.4l0,0c0-0.1-0.1-0.2-0.2-0.3h0c0-0.1-0.1-0.2-0.2-0.3
		c0-0.1-0.1-0.2-0.2-0.3c-0.1,0-0.1-0.1-0.2-0.2c-0.4-0.5-0.9-0.9-1.4-1.4c-0.1,0-0.2-0.1-0.3-0.2c0,0,0,0-0.1,0
		c-0.1-0.1-0.1-0.1-0.2-0.2c0,0,0,0-0.1-0.1c-0.3-0.1-0.5-0.3-0.8-0.5c-0.1-0.1-0.3-0.1-0.4-0.2h0c-0.1-0.1-0.3-0.2-0.4-0.2
		c-0.2-0.1-0.4-0.2-0.6-0.3l0,0c-0.2-0.1-0.4-0.2-0.7-0.3c-0.3-0.1-0.5-0.2-0.7-0.3c-0.7-0.2-1.3-0.5-2-0.7c0,0-0.1,0-0.2,0
		c-0.2-0.1-0.5-0.2-0.7-0.3c-0.2-0.1-0.5-0.2-0.8-0.3c-0.4-0.2-0.8-0.3-1.3-0.5c0,0,0,0-0.1,0c-0.1,0-0.3-0.1-0.5-0.2h-0.1
		c-0.2-0.1-0.4-0.2-0.6-0.3c-0.2-0.1-0.4-0.2-0.6-0.3c-0.1,0-0.3-0.1-0.4-0.2h0c-0.1-0.1-0.3-0.1-0.4-0.2c0,0,0,0,0,0
		c-0.1,0-0.2-0.1-0.4-0.2h0c-0.1-0.1-0.3-0.2-0.4-0.3c-0.1-0.1-0.3-0.2-0.4-0.3c-0.4-0.3-0.8-0.6-1.1-1c-0.1-0.1-0.1-0.2-0.2-0.3
		c0,0-0.1-0.1-0.1-0.2c0-0.1-0.1-0.2-0.2-0.3c0,0,1.8,0,4.3,0.5c0.5,0.1,0.9,0.2,1.4,0.3c0.8,0.2,1.7,0.5,2.6,0.7c0,0,0,0,0,0
		c0.3,0.1,0.6,0.2,0.9,0.3c0.3,0.1,0.5,0.2,0.7,0.3c0.2,0,0.4,0.1,0.6,0.2c0.2,0.1,0.4,0.1,0.6,0.2c0.3,0.2,0.7,0.4,1.1,0.6
		c0.3,0.1,0.6,0.3,0.8,0.5c0.2,0.1,0.4,0.3,0.6,0.4c0,0,0,0,0.1,0c0.2,0.1,0.4,0.3,0.5,0.4c0.1,0.1,0.3,0.2,0.4,0.3
		c0.5,0.4,0.8,0.7,1.2,1l0.3,0.3c0.3,0.4,0.6,0.7,0.8,1c0.1,0.1,0.1,0.2,0.2,0.3c0.1,0.2,0.2,0.4,0.3,0.5c0.1,0.2,0.2,0.4,0.3,0.5
		c0,0.1,0.1,0.2,0.1,0.3c0.1,0.4,0.3,0.7,0.3,1c0,0.1,0,0.2,0.1,0.3c0,0.3,0.1,0.5,0.1,0.8l0,0v0.2v0.3v0.1V29c0,0,0-0.1-0.1-0.1
		C147.9,28.7,147.8,28.6,147.7,28.4L147.7,28.4z"/>
	<path class="st1" d="M153.4,55c-0.1-0.3-0.3-0.5-0.5-0.8c0,0,0,0,0,0c-0.5,0-1-0.1-1.5-0.2h-5.7c0.3,0.2,0.8,0.5,1.4,1H153.4z"/>
	<path class="st1" d="M129,57.9c-0.1,0.3-0.1,0.7-0.2,1h4.8c0.1-0.4,0.2-0.7,0.3-1H129z"/>
	<path class="st1" d="M154.2,56.6h-5.5c0.3,0.3,0.6,0.6,0.8,1h5.1C154.6,57.3,154.4,56.9,154.2,56.6"/>
	<path class="st1" d="M129.2,55.2c0,0.4,0,0.7,0,1h3.9c-0.3-0.3-0.6-0.7-0.8-1H129.2z"/>
	<path class="st1" d="M127.7,61.6h4.7c0.2-0.3,0.4-0.7,0.5-1h-4.7C128,60.9,127.9,61.2,127.7,61.6"/>
	<path class="st1" d="M127.5,62l0.5,1h3.5c0.3-0.3,0.5-0.6,0.7-1L127.5,62C127.5,61.9,127.5,61.9,127.5,62"/>
	<path class="st1" d="M129,57.6h4.8c0,0,0-0.1,0-0.2c0,0,0,0,0-0.1c-0.2-0.2-0.4-0.5-0.6-0.7h-4.1C129.1,56.9,129.1,57.3,129,57.6"
		/>
	<path class="st1" d="M128.3,60.3h4.8c0.1-0.3,0.3-0.7,0.4-1h-4.8C128.6,59.5,128.4,59.9,128.3,60.3"/>
	<path class="st1" d="M117.6,40.4h1.6c0.1-0.3,0.1-0.7,0.3-1h-1.1C118.3,39.6,118,40,117.6,40.4"/>
	<path class="st1" d="M153.6,55.2h-6.2c0.3,0.3,0.7,0.7,1.1,1h5.7C154,56,153.8,55.6,153.6,55.2"/>
	<path class="st1" d="M129.1,65.2c0,0,0.3-0.2,0.9-0.7h-1.3L129.1,65.2z"/>
	<path class="st1" d="M129.2,53.9c0,0.3,0,0.7,0,1h2.8c-0.2-0.3-0.5-0.7-0.7-1H129.2z"/>
	<path class="st1" d="M129,52.6c0,0.3,0.1,0.6,0.1,1h2c-0.2-0.4-0.5-0.7-0.7-1H129z"/>
	<path class="st1" d="M128.6,64.2h1.7c0.3-0.3,0.6-0.6,1-1h-3.2L128.6,64.2z"/>
	<path class="st1" d="M124.4,11.9L124.4,11.9c0-0.2,0-0.3,0-0.4c-0.1-0.8-0.5-1.5-1-2c-0.1-0.1-0.2-0.2-0.3-0.3
		c-0.3-0.2-0.6-0.3-0.8-0.4c-0.4-0.1-0.7-0.2-1.1-0.2c-0.4,0-0.7,0.1-1.1,0.2c-0.3,0.1-0.6,0.2-0.8,0.4c-0.1,0.1-0.2,0.2-0.4,0.3
		l-0.3,0.3c-0.3,0.4-0.5,0.8-0.7,1.3c0,0.2,0,0.5,0,0.7C120.3,11.8,122.5,11.8,124.4,11.9"/>
	<path class="st1" d="M144,30.5L144,30.5c0,0.2,0,0.4,0.1,0.6c0,0,0,0,0,0.1c0,0.3,0.1,0.5,0.2,0.7c0.1,0.2,0.1,0.4,0.2,0.5
		c0,0.1,0.1,0.2,0.1,0.3c0.6,1.1,1.5,1.9,1.9,2.2h0c0,0,0,0.1,0.1,0.1h0c0,0,0,0,0,0.1h0l0,0v0v0c0,0,0,0,0-0.1v0v0v0v0
		c0-0.1,0-0.2,0-0.3v-0.2V34c0-0.1,0-0.2,0-0.3c0-0.3,0-0.7,0-1c0-0.5-0.1-1.1-0.3-1.6c0-0.1,0-0.2-0.1-0.3v0c0-0.1-0.1-0.1-0.1-0.2
		c-0.1-0.1-0.1-0.2-0.2-0.3c-0.1-0.1-0.1-0.1-0.2-0.2c-0.1-0.1-0.2-0.2-0.3-0.3c0,0-0.1-0.1-0.1-0.1c-0.6-0.4-1.2-0.5-1.4,0
		c-0.1,0.1-0.1,0.3-0.1,0.4c0,0,0,0.1,0,0.2v0V30.5z"/>
	<path class="st1" d="M139.3,62.4c-0.2-0.2-0.4-0.3-0.6-0.5c-0.1-0.1-0.2-0.2-0.3-0.3c-0.4-0.3-0.8-0.7-1.2-1
		c-0.1-0.1-0.2-0.2-0.3-0.3c-0.4-0.4-0.7-0.7-1.1-1l0,0c-0.8,0.3-1.4,0.9-1.8,1.6c0,0,0,0,0,0c0,0.1,0,0.1-0.1,0.2v0
		c0,0,0,0.1-0.1,0.2c0,0.1,0,0.2,0,0.3c0,0.2,0,0.4,0,0.6v0.4v0c0,0.1,0,0.2,0.1,0.3c0,0.3,0.1,0.6,0.3,0.9c0,0.1,0.1,0.1,0.1,0.2
		c0.1,0.1,0.1,0.2,0.2,0.2c0.1,0.1,0.2,0.2,0.3,0.3c0.1,0.1,0.3,0.2,0.5,0.4h0c0,0,0.1,0.1,0.2,0.1h0c0,0,0.1,0.1,0.2,0.1
		c0,0,0,0,0,0c0.1,0,0.1,0,0.2,0.1h0.1c0.1,0,0.1,0,0.2,0c0,0,0.1,0,0.1,0h0.1c0.1,0,0.2,0,0.3,0c0.1,0,0.2,0,0.3,0h0.1
		c0,0,0.1,0,0.2,0h0.1c0,0,0.1,0,0.2,0c0,0,0,0,0.1,0c0,0,0.1,0,0.2,0c0,0,0,0,0.1,0c0,0,0.1,0,0.2-0.1h0c0.1,0,0.1-0.1,0.2-0.1l0,0
		c0.1-0.1,0.3-0.2,0.5-0.3c0.1-0.1,0.2-0.2,0.3-0.3c0.2-0.3,0.5-0.6,0.6-1c0,0,0-0.1,0.1-0.2C139.8,62.8,139.6,62.5,139.3,62.4"/>
	<path class="st1" d="M148,61.1L148,61.1c0-0.2,0-0.4,0-0.5c0-0.3-0.1-0.5-0.1-0.8v0c0-0.1,0-0.3-0.1-0.5c0-0.1,0-0.2,0-0.3
		c0-0.2-0.1-0.4-0.2-0.5c0-0.3-0.1-0.5-0.2-0.8c-0.1-0.3-0.3-0.6-0.4-1c-0.1-0.3-0.3-0.5-0.4-0.8c-0.1-0.2-0.2-0.4-0.3-0.5
		c-0.1-0.2-0.3-0.5-0.5-0.8c-0.2-0.3-0.4-0.5-0.6-0.8h4.6c-1.4-0.3-2.8-0.6-4.2-1h-1.2l-0.3-0.3h0.6c-0.4-0.1-0.8-0.3-1.3-0.5
		c-0.1,0-0.2-0.1-0.3-0.1c-0.4-0.1-0.7-0.3-1.1-0.5c-0.3-0.1-0.7-0.3-1.1-0.5c-0.2-0.1-0.5-0.2-0.7-0.3c-0.1,0-0.2-0.1-0.3-0.1
		c-0.3-0.1-0.6-0.3-0.8-0.4c-0.2-0.1-0.4-0.2-0.6-0.3c-0.2-0.1-0.5-0.3-0.7-0.4c-0.1,0-0.2-0.1-0.2-0.1c-0.2-0.1-0.5-0.3-0.7-0.4
		c-0.2-0.1-0.4-0.2-0.6-0.4c-0.1-0.1-0.2-0.1-0.3-0.2c-0.2-0.1-0.4-0.3-0.6-0.4c-0.1-0.1-0.2-0.2-0.3-0.2c-0.2-0.2-0.4-0.3-0.6-0.5
		c-0.1-0.1-0.3-0.2-0.5-0.4c-0.1-0.1-0.3-0.2-0.4-0.3c-0.1-0.1-0.2-0.2-0.3-0.3c-0.2-0.2-0.4-0.4-0.6-0.5c-0.2-0.2-0.4-0.3-0.6-0.5
		c-0.2-0.2-0.4-0.4-0.6-0.5c-0.1-0.1-0.2-0.2-0.3-0.3c-0.2-0.2-0.4-0.5-0.7-0.7c0,0,0,0,0,0c-0.1-0.1-0.2-0.3-0.3-0.4
		c-0.2-0.3-0.5-0.5-0.7-0.9c-0.1-0.2-0.3-0.4-0.4-0.5c-0.2-0.3-0.4-0.5-0.6-0.7c-0.1-0.2-0.3-0.5-0.5-0.7c0,0,0,0.1,0,0.3v0.3v0.2
		c0,0,0,0,0,0v0.2v0c0,0.1,0,0.3,0,0.5c0,0.1,0,0.2,0,0.3c0,0.1,0,0.3,0,0.5c0,0.1,0,0.3-0.1,0.5c0,0.1,0,0.2,0,0.3
		c0,0.1,0,0.3,0,0.5v0c0,0.2-0.1,0.4-0.1,0.5c0,0.1,0,0.2-0.1,0.3c0,0.4-0.1,0.7-0.2,1c0,0.1,0,0.2-0.1,0.3c0,0.4-0.1,0.7-0.2,1
		c0,0.1-0.1,0.2-0.1,0.3c-0.1,0.4-0.2,0.7-0.4,1c0,0.1,0,0.2-0.1,0.3c-0.1,0.2-0.1,0.4-0.2,0.5v0c-0.1,0.1-0.1,0.3-0.2,0.5
		c0,0.1-0.1,0.2-0.1,0.3c-0.2,0.4-0.4,0.7-0.7,1c-0.1,0-0.1,0.1-0.2,0.2l-0.2-0.2c-0.1-0.2-0.4-0.5-0.7-1c0-0.1-0.1-0.2-0.2-0.3
		c0,0,0-0.1-0.1-0.2v0c0,0-0.1-0.1-0.1-0.2c0-0.1-0.1-0.2-0.1-0.3c0-0.1-0.1-0.2-0.1-0.3c0-0.1-0.1-0.2-0.1-0.3
		c0-0.1-0.1-0.3-0.1-0.5l0,0c0-0.2-0.1-0.4-0.2-0.5c0-0.1,0-0.2-0.1-0.3c0-0.1,0-0.3-0.1-0.5l0,0c0-0.2-0.1-0.4-0.1-0.5
		c0-0.1,0-0.2,0-0.3c-0.1-0.3-0.2-0.7-0.2-1c0-0.1,0-0.2,0-0.3c0-0.1,0-0.3-0.1-0.4v-0.1c0-0.1,0-0.3-0.1-0.5c0-0.1,0-0.2,0-0.3
		c0-0.3-0.1-0.6-0.1-1c0-0.3,0-0.6-0.1-1c0,0-0.1,0.3-0.2,1c0,0.3-0.1,0.6-0.2,1v0c0,0.1,0,0.2,0,0.3c0,0.1,0,0.3-0.1,0.5
		c0,0.2,0,0.3-0.1,0.5c0,0.1,0,0.2,0,0.3c0,0.1,0,0.3,0,0.5c-0.1,0.5-0.2,1.2-0.2,1.9c0,0.1,0,0.2,0,0.3c0,0.2,0,0.3,0,0.5
		c0,0.2,0,0.3,0,0.5c0,0.1,0,0.2,0,0.3v0V49c0,0.1,0,0.2,0,0.3v0.3c0,0.5,0,0.9,0,1.3v0c0,0.1,0,0.2,0,0.3v1c0,0.4,0,0.9,0,1.3
		c0,0,0,0,0,0h0V55c0,1,0,1.9,0.1,3c0,0.4,0.1,0.9,0.1,1.3c0,0.4,0.1,0.9,0.1,1.3c0,0.5,0.1,0.9,0.1,1.3c0,0,0.8-0.2,1.9-0.8h0
		c0.1,0,0.1-0.1,0.2-0.1h0c0,0,0.1-0.1,0.2-0.2h0c0,0,0.1-0.1,0.2-0.2c0.1-0.1,0.3-0.2,0.4-0.3c0.1-0.1,0.2-0.1,0.3-0.2c0,0,0,0,0,0
		c0.1,0,0.2-0.1,0.3-0.2l0.6-0.5l0.3-0.3c0.4-0.4,0.7-0.9,1-1.4c0.1-0.1,0.2-0.3,0.3-0.5c0.3-0.4,0.5-0.8,0.7-1.3v0
		c0.1-0.1,0.1-0.3,0.2-0.5c0-0.1,0.1-0.2,0.1-0.3c0.1-0.1,0.1-0.3,0.2-0.5c0,0,0-0.1,0-0.1c0.1-0.2,0.2-0.5,0.2-0.7
		c0.1-0.4,0.3-0.9,0.4-1.3c0-0.2,0.1-0.4,0.1-0.6c0,0,0,0.2,0.1,0.6h1.3c-0.2-0.4-0.4-0.7-0.5-1H129c0-0.1,0-0.2,0.1-0.3h0.5
		c-0.1-0.2-0.2-0.4-0.3-0.6l0-0.5v-0.3l0.1-1v-0.3l0-0.5l0.1-1.7c0,0.1,0.2,0.7,0.6,1.6c0,0.1,0.1,0.2,0.1,0.2v0
		c0.1,0.2,0.2,0.4,0.3,0.5v0c0.1,0.1,0.2,0.3,0.3,0.5v0c0.1,0.2,0.3,0.5,0.5,0.8c0.1,0.1,0.2,0.3,0.3,0.5c0.1,0.2,0.2,0.4,0.3,0.5
		c0.2,0.2,0.3,0.5,0.5,0.7c0,0,0,0,0,0.1c0.1,0.2,0.2,0.3,0.3,0.5c0.1,0.1,0.1,0.2,0.2,0.3c0.1,0.2,0.2,0.3,0.4,0.5
		c0.1,0.2,0.2,0.4,0.4,0.5c0.1,0.1,0.1,0.2,0.2,0.3c0.3,0.4,0.6,0.7,0.8,1c0.1,0.1,0.2,0.2,0.2,0.3c0.3,0.4,0.6,0.7,0.9,1
		c0.1,0.1,0.1,0.2,0.2,0.3c0.2,0.1,0.3,0.3,0.5,0.5c0,0,0,0,0,0c0.1,0.1,0.3,0.3,0.5,0.5c0.1,0.1,0.2,0.2,0.3,0.3
		c0.2,0.2,0.3,0.3,0.5,0.5c0.2,0.2,0.3,0.4,0.5,0.5c0.1,0.1,0.2,0.2,0.3,0.3c0.1,0.2,0.3,0.3,0.5,0.5l0,0c0.1,0.1,0.3,0.3,0.5,0.5
		c0.5,0.4,1,0.9,1.5,1.3c0.1,0.1,0.2,0.2,0.3,0.3c0.7,0.6,1.4,1.2,2.2,1.9h0c0.3,0.3,0.7,0.5,1,0.8c0.2,0.2,0.5,0.3,0.7,0.5
		c0.4,0.3,0.7,0.5,1.1,0.8c0,0,0.1,0.1,0.2,0.1c0,0,0-0.1,0.1-0.1c0.1-0.2,0.2-0.5,0.3-0.8c0-0.1,0.1-0.2,0.1-0.3
		c0.1-0.2,0.1-0.4,0.2-0.6c0-0.1,0.1-0.3,0.1-0.5v0c0.1-0.3,0.1-0.5,0.1-0.8c0-0.1,0-0.3,0-0.5v-0.5V61.1z"/>
</g>
</svg>
