<?xml version="1.0" encoding="utf-8"?>
<!-- Generator: Adobe Illustrator 15.0.2, SVG Export Plug-In . SVG Version: 6.00 Build 0)  -->
<!DOCTYPE svg PUBLIC "-//W3C//DTD SVG 1.1//EN" "http://www.w3.org/Graphics/SVG/1.1/DTD/svg11.dtd">
<svg version="1.1" id="Layer_1" xmlns="http://www.w3.org/2000/svg" xmlns:xlink="http://www.w3.org/1999/xlink" x="0px" y="0px"
	 width="470.986px" height="462.98px" viewBox="0 0 470.986 462.98" enable-background="new 0 0 470.986 462.98"
	 xml:space="preserve">
<g>
	<path fill="#7C3D44" d="M127.833,50.701h31.638c-1.292-2.544-2.583-4.782-3.874-7.332h-29.056
		C126.866,45.605,127.19,48.157,127.833,50.701"/>
	<path fill="#7C3D44" d="M130.093,59.949h35.188c-1.615-2.229-3.23-4.787-4.84-7.338h-32.279
		C128.802,54.848,129.451,57.4,130.093,59.949"/>
	<path fill="#7C3D44" d="M164.635,87.69h29.697c-1.934-1.282-5.489-3.505-10.005-7.011h-44.551c0.968,1.274,1.935,2.536,2.907,4.139
		C150.756,85.78,158.179,86.729,164.635,87.69"/>
	<path fill="#7C3D44" d="M133.645,69.199h39.062c-1.94-2.229-4.198-4.789-6.132-7.331h-35.837
		C131.705,64.41,132.678,66.648,133.645,69.199"/>
	<path fill="#7C3D44" d="M307.317,69.199c0-2.229,0.324-4.789,0.649-7.331h-33.254c0,0.313-0.325,0.634-0.325,0.954v0.314
		c1.934,2.235,3.557,4.146,5.165,6.063H307.317z"/>
	<path fill="#7C3D44" d="M235.975,22.639c0.648,0.642,1.298,1.281,1.934,1.918l6.139,6.062c1.291,1.271,2.258,2.226,3.549,3.5
		c1.292,0.961,2.266,2.244,3.55,3.505c1.298,1.276,2.589,2.564,3.549,3.833c0.649,0.635,1.299,1.275,1.947,1.916
		c1.284,1.271,2.258,2.545,3.549,3.515c0.96,1.262,2.259,2.544,3.226,3.812c0.324,0.322,0.635,0.645,0.967,0.962
		c1.291-0.64,2.59-1.589,3.549-2.551c0.649-0.32,0.975-0.961,1.623-1.596c0.644-0.627,0.967-1.271,1.284-1.917
		c0.974-1.275,1.615-2.864,1.939-4.141v-0.641l0.975-2.872v-0.32c0-1.589,0.311-3.185,0.311-4.779c0-2.858-0.635-5.729-1.608-7.976
		v-0.312c-0.324-0.637-0.643-1.276-0.967-1.918c-0.648-1.274-1.29-2.552-2.258-3.826h-0.325c-0.323-0.633-0.647-1.269-1.298-1.581
		v-0.32c-2.899-2.552-6.456-4.796-10.005-5.743c-0.316,0-0.316,0-0.316-0.313c-0.968,0-1.616-0.321-2.591-0.321h-0.635
		c-0.975-0.327-1.939-0.327-2.914-0.327c-0.96,0-1.934,0-2.906,0.327h-0.644c-0.966,0-1.608,0.321-2.582,0.635h-0.324
		c-0.96,0.313-1.608,0.636-2.583,0.947c-0.967,0.321-1.934,0.64-2.574,1.276c-1.94,0.968-3.557,2.556-5.173,3.84v0.313
		c-0.642,0.636-1.283,1.269-1.607,2.225C233.717,20.736,234.684,21.685,235.975,22.639"/>
	<path fill="#7C3D44" d="M174.639,71.111h-40.027c1.291,2.551,2.583,5.094,3.874,7.331h43.583
		C179.804,76.527,177.222,73.983,174.639,71.111"/>
	<path fill="#7C3D44" d="M308.288,97.252c-0.324-2.222-0.648-4.466-0.974-7.33h-12.263c1.615,2.553,3.225,5.108,4.84,7.33H308.288z"
		/>
	<path fill="#7C3D44" d="M42.288,311.212h44.226c0.317-2.552,0.642-4.788,0.967-7.34H56.491
		C52.293,306.424,47.453,308.981,42.288,311.212"/>
	<path fill="#7C3D44" d="M26.468,329.703h48.748c3.225-1.596,6.456-3.506,9.681-5.736v-1.596H29.05L26.468,329.703z"/>
	<path fill="#7C3D44" d="M31.956,314.717l-2.259,5.743H85.22c0.325-2.552,0.649-4.788,0.974-7.34H37.121
		C35.505,313.756,33.572,314.402,31.956,314.717"/>
	<path fill="#7C3D44" d="M59.397,301.963h28.407c0.324-2.551,0.966-5.104,1.291-7.334h-20.01
		C66.17,296.859,62.946,299.412,59.397,301.963"/>
	<path fill="#7C3D44" d="M25.823,331.616l-2.582,7.331h1.291h20.658c7.423-0.955,16.469-2.865,25.824-7.331H25.823z"/>
	<path fill="#7C3D44" d="M30.988,149.23l-7.423,3.825h14.847C35.835,151.78,33.57,150.827,30.988,149.23"/>
	<path fill="#7C3D44" d="M84.898,378.488c-0.323-0.635-0.323-1.595-0.323-2.23c-0.318-2.242-0.318-4.779-0.644-7.339v-1.91
		c0-1.273,0-2.557-0.324-3.505v-3.824v-1.925v-7.324v-2.237c0-2.23,0-4.78,0.324-7.02v-4.452c-0.966-0.32-1.939-0.32-2.907-0.32
		c-0.967,0-1.939,0-2.583,0.32H77.8c-0.974,0-1.291,0.313-1.94,0.313c-0.324,0-0.648,0-0.648,0.322
		c-0.643,0-1.608,0.319-2.258,0.625h-0.325c-1.934,0.647-3.874,1.925-5.482,2.887c-0.648,0.627-1.291,1.27-1.939,1.588
		c-0.318,0.643-0.968,1.277-1.616,1.909c-0.318,0.643-0.967,0.963-1.292,1.597c0,0.321-0.324,0.321-0.324,0.321
		c-0.642,1.275-1.609,2.55-2.258,4.146c0,0.628-0.318,1.275-0.644,1.597c0,0.634,0,0.955-0.323,1.275v0.636
		c-0.317,0.634-0.317,0.954-0.317,1.596v0.319c-0.325,0.635-0.325,1.274-0.325,1.902v1.282v0.643c0,3.186,0.966,6.377,2.258,9.239
		c0.325,0.643,0.643,1.283,1.291,1.91c0.318,0.648,0.643,1.282,1.292,1.925c0.324,0.632,0.967,1.262,1.291,1.908h0.325
		c2.258,2.544,5.165,4.147,8.39,5.422l0.324,0.308c0.643,0,0.967,0.319,1.291,0.319c0.325,0.328,0.968,0.328,1.616,0.328
		c0.325,0,0.325,0.32,0.643,0.32h1.292c0.323,0,0.648,0.32,0.648,0.32h2.258c1.291,0,2.583,0,3.874-0.32v-1.596v-1.274H84.898z"/>
	<path fill="#7C3D44" d="M154.95,41.458c-0.967-2.551-1.934-4.788-2.907-7.332h-25.824c0,1.91,0,4.461,0.325,7.332H154.95z"/>
	<path fill="#7C3D44" d="M309.901,52.612h-32.93c-0.649,2.229-1.291,4.788-1.934,7.34h33.246
		C308.928,57.4,309.252,55.164,309.901,52.612"/>
	<path fill="#7C3D44" d="M407.07,164.217h-26.798c-0.649,2.552-0.975,4.788-1.609,7.331h19.693
		C400.932,169.005,403.838,166.768,407.07,164.217"/>
	<path fill="#7C3D44" d="M440.316,145.725h-57.139c-0.324,2.229-0.643,4.779-0.966,7.332h43.259
		C429.661,150.82,440.316,145.725,440.316,145.725"/>
	<path fill="#7C3D44" d="M421.271,154.967h-39.386c-0.644,2.23-0.967,4.789-1.291,7.34h29.056
		C413.198,159.756,417.073,157.197,421.271,154.967"/>
	<path fill="#7C3D44" d="M396.418,173.459h-18.084c-0.644,2.553-1.284,4.789-1.935,7.334h13.237
		C391.57,178.561,393.835,176.011,396.418,173.459"/>
	<path fill="#7C3D44" d="M281.169,71.111c1.933,2.551,3.873,5.094,5.489,7.331h20.01c0-2.237,0.323-4.78,0.323-7.331H281.169z"/>
	<path fill="#7C3D44" d="M448.068,123.4c0,0-13.236-2.55-31.307,1.596h30.981L448.068,123.4z"/>
	<path fill="#7C3D44" d="M385.441,124.994v0.636c1.615,0.646,3.226,0.96,5.807,0.96c2.582,0,5.173-0.635,7.747-1.596
		c1.935-0.635,3.882-1.595,5.489-2.871c1.94-1.274,3.226-2.87,4.523-4.461c0.642-0.641,0.966-1.268,1.607-1.916
		c0.324-0.634,0.649-1.274,0.968-1.596v-0.313c0.323-0.313,0.648-0.962,0.648-1.596l0.324-0.322c0-0.634,0.324-0.954,0.324-1.589
		c0.323-0.313,0.323-0.96,0.635-1.595c0-0.963,0.325-1.596,0.325-2.229v-2.56v-2.55c0-0.635-0.325-1.589-0.325-2.231
		c-0.312-1.273-0.635-2.222-0.959-3.19c-0.324-0.313-0.324-0.636-0.324-0.955c-0.325-0.634-0.648-0.947-0.967-1.58
		c-0.649-1.283-1.292-2.566-2.258-3.521c-1.94-2.544-4.198-4.46-7.105-6.049c-0.648-0.328-1.291-0.648-1.934-0.962h-0.324
		c-0.649-0.322-1.291-0.322-1.94-0.642h-0.323c-0.644-0.313-1.284-0.313-1.609-0.636h-1.298c-0.317,0-0.644-0.319-0.96-0.319h-2.266
		c-2.258,0-4.19,0.319-5.488,0.642v3.506c0,0.634,0.323,1.604,0.323,2.23v2.229v3.191v1.274c0,0.954,0.325,1.909,0.325,2.879v1.901
		v7.341c0,0.635-0.325,1.268-0.325,1.909v7.331c0,0.648-0.323,1.275-0.323,1.916C385.759,120.213,385.441,122.443,385.441,124.994"
		/>
	<path fill="#7C3D44" d="M393.186,134.243h51.324l2.589-7.331h-37.127C404.489,128.821,398.991,131.052,393.186,134.243"/>
	<path fill="#7C3D44" d="M388.018,182.709h-11.938c-0.647,2.551-1.291,5.103-1.939,7.339h8.722
		C383.82,188.445,385.442,185.9,388.018,182.709"/>
	<path fill="#7C3D44" d="M71.342,292.395h18.077c0.642-2.226,1.292-4.782,1.616-7.333H78.765
		C76.506,287.612,74.249,289.85,71.342,292.395"/>
	<path fill="#7C3D44" d="M306.992,87.69c0-2.23-0.323-4.475-0.323-7.011h-18.396c1.935,2.536,3.55,4.779,5.158,7.011H306.992z"/>
	<path fill="#7C3D44" d="M313.126,43.37h-32.922c-0.975,2.225-1.935,4.782-2.582,7.332h32.929
		C311.193,48.152,312.159,45.922,313.126,43.37"/>
	<path fill="#7C3D44" d="M316.997,34.121h-32.271c-1.299,2.231-2.583,4.468-3.881,7.339h32.929
		C314.747,38.909,315.706,36.353,316.997,34.121"/>
	<path fill="#7C3D44" d="M443.548,136.476h-53.589c-1.616,0.641-4.198,4.146-6.456,6.695v0.638h57.786L443.548,136.476z"/>
	<path fill="#7C3D44" d="M407.387,269.437c-1.935,1.597-3.549,3.191-5.482,4.475h23.884c-5.488-1.923-11.296-3.513-17.752-4.795
		C408.035,269.116,408.035,269.437,407.387,269.437"/>
	<path fill="#7C3D44" d="M436.768,311.212h7.747l15.17-7.34h-44.226C422.558,305.148,429.661,307.706,436.768,311.212"/>
	<path fill="#7C3D44" d="M431.276,248.072c-2.899,2.552-5.481,4.789-7.747,7.339c-0.967,0.642-1.608,1.27-2.258,1.91
		c-0.975,0.954-2.258,1.923-3.231,2.87c0.324,0.635,0.975,1.596,1.622,2.238c1.284,1.901,2.9,3.817,4.833,5.094
		c0.325,0.314,0.649,0.314,0.975,0.635c0.648,0.326,0.967,0.648,1.608,0.969c0.648,0.308,0.975,0.628,1.623,0.628
		c0.317,0.321,0.643,0.321,0.959,0.641c0.649,0.321,0.975,0.321,1.616,0.635h0.649c0.966,0.319,1.933,0.649,2.582,0.649h0.967
		c0.967,0.318,1.615,0.318,2.582,0.318h2.258c0.324,0,0.649-0.318,0.974-0.318h1.292c0.317,0,0.643-0.33,0.967-0.33
		c0.316,0,0.643-0.319,0.967-0.319c0.325,0,0.974-0.313,1.298-0.313c0.313,0,0.313-0.322,0.636-0.322
		c0.649,0,0.975-0.318,1.298-0.318c0.325-0.321,0.325-0.321,0.644-0.321c0.324-0.32,0.974-0.628,1.291-0.628
		c0-0.319,0.324-0.319,0.324-0.319c0.643-0.322,0.967-0.648,1.291-0.969c0.324,0,0.324,0,0.324-0.314
		c4.198-2.871,7.424-7.332,8.714-12.112c0-0.962,0.324-1.917,0.324-2.862c0.317,0,0.317,0,0.317-0.322v-2.87v-1.283
		c0-0.634,0-1.273-0.317-2.224c0-0.646,0-1.282-0.324-1.923c0-0.634-0.323-0.947-0.323-1.27c-0.325-0.32-0.325-0.642-0.325-0.961
		c-0.643-1.903-1.608-3.508-2.582-5.095c-0.643-0.642-0.967-1.283-1.609-1.916l-1.938-1.911c0,0-0.325-0.327-0.649-0.327
		c-0.316-0.634-0.635-0.954-1.284-1.274c-0.648-0.634-1.615-0.954-2.258-1.591c-1.291,1.271-2.265,2.544-3.55,3.827
		c-0.973,0.954-2.265,2.23-3.23,3.192c-0.648,0.946-1.615,1.587-2.266,2.223c-2.258,2.552-4.84,4.781-7.104,7.024
		C432.573,246.798,431.926,247.438,431.276,248.072"/>
	<path fill="#7C3D44" d="M337.662,406.23h-34.545c1.291,2.222,2.913,4.787,4.522,7.33h31.955
		C338.953,411.018,338.313,408.78,337.662,406.23"/>
	<path fill="#7C3D44" d="M373.816,294.625c-5.164,3.192-9.362,5.424-12.263,7.34h19.691c5.808-0.642,12.912-0.642,20.335,0h62.304
		c-0.649-0.642-2.59-3.513-6.456-7.34H373.816z"/>
	<path fill="#7C3D44" d="M339.923,415.471H308.61c1.291,2.231,2.582,4.789,3.549,7.334h29.057
		C340.89,420.574,340.572,418.023,339.923,415.471"/>
	<path fill="#7C3D44" d="M338.627,441.302h2.258c0-0.955,0.325-3.507,0.648-7.332h-24.531L338.627,441.302z"/>
	<path fill="#7C3D44" d="M313.126,424.721c0.974,2.229,1.934,4.789,2.583,7.338h25.823c0-2.234,0-4.465-0.325-7.338H313.126z"/>
	<path fill="#7C3D44" d="M386.405,392.835c0-0.319,0-0.641,0.325-0.954v-0.641c0.324-0.629,0.324-1.277,0.324-1.597v-0.313
		c0.325-0.962,0.325-2.23,0.325-3.514v-0.313c0-0.956,0-1.918-0.325-2.872c-13.562,0.32-29.057,0.32-45.192-0.963
		c0,0.644,0,1.283-0.324,1.917v2.229c0,1.282,0.324,2.552,0.324,3.514v0.313c0.317,0.318,0.317,0.968,0.317,1.597
		c0,0,0.325,0.319,0.325,0.641c0,0.313,0,0.635,0.316,0.954c0,0.635,0.324,0.962,0.324,1.282c0,0.313,0.324,0.313,0.324,0.627
		c0.648,1.596,1.299,2.879,2.258,4.147l0.325,0.319c0.324,0.636,0.648,0.963,1.291,1.604v0.306c0.648,0.321,0.974,0.963,1.616,1.282
		v0.313c0.642,0.323,1.29,0.963,1.939,1.283c1.608,1.271,3.549,2.226,5.481,3.191h0.324c0.649,0.307,1.291,0.307,2.259,0.629h0.323
		c0.649,0.32,1.291,0.32,1.94,0.641h0.643h2.582h2.582h0.649c0.642-0.319,1.284-0.319,1.934-0.641h0.649
		c0.642-0.322,1.291-0.322,1.933-0.629h0.325c0.642-0.32,1.615-0.642,2.265-0.967c1.284-0.638,2.259-1.276,3.226-2.226
		c0.642-0.321,1.291-0.96,1.933-1.283v-0.313c0.649-0.319,1.299-0.961,1.609-1.282c0-0.306,0-0.306,0.324-0.306
		c0.323-0.642,0.648-0.969,1.299-1.604v-0.319c0.966-1.27,1.607-2.553,2.258-4.147c0.317-0.313,0.317-0.313,0.317-0.627
		C386.08,393.797,386.08,393.47,386.405,392.835"/>
	<path fill="#7C3D44" d="M64.562,192.277H58.43c1.609,0.314,3.225,0.635,4.84,0.954C63.595,192.912,63.92,192.594,64.562,192.277"/>
	<path fill="#7C3D44" d="M40.672,214.274L40.672,214.274c1.291-1.276,2.583-2.225,3.549-3.506c0.649-0.642,1.298-1.282,2.265-1.91
		c1.291-1.282,2.575-2.559,3.874-3.832c1.291-1.275,2.259-2.545,3.55-3.506c-0.325-0.955-0.968-1.597-1.292-2.543
		c-0.325-0.321-0.643-0.648-0.968-1.282c-0.323,0-0.648-0.32-0.648-0.32c-0.325-0.321-0.643-0.643-0.967-0.956
		s-0.649-0.313-0.649-0.633c-0.325,0-0.967-0.313-1.292-0.644c-0.317,0-0.317-0.32-0.642-0.32c-0.649-0.313-0.968-0.313-1.292-0.633
		c-0.325,0-0.643,0-0.967-0.322c-0.324,0-0.974,0-1.292-0.318H42.93c-0.642-0.32-1.292-0.32-1.934-0.32
		c-0.324,0-0.649,0-0.967-0.309h-2.906h-2.258c-0.324,0.309-0.649,0.309-0.975,0.309H32.6c-0.642,0.32-0.967,0.32-1.616,0.64h-0.642
		c-0.649,0.322-1.292,0.644-1.616,0.644c-0.317,0-0.317,0-0.317,0.313c-0.649,0-1.291,0.32-1.94,0.649v0.313
		c-1.94,0.946-3.874,2.229-5.165,3.511l-0.325,0.314c-1.933,1.909-3.549,4.461-4.84,7.331c-0.324,0.634-0.642,1.276-0.642,1.916
		c-0.649,1.27-0.975,2.872-0.975,4.14c0,0.956-0.316,1.597-0.316,2.56c0,0.948,0.316,1.589,0.316,2.545
		c0.325,3.51,0.975,6.702,2.583,9.247c0.649,1.589,1.616,2.871,2.583,3.824c0.324,0.329,0.324,0.643,0.649,0.643
		c0.325,0.321,0.325,0.321,0.642,0.636c0.325,0.313,0.975,0.954,1.616,1.275c1.292-1.59,2.583-2.872,3.874-4.468
		c0.649-0.628,1.292-1.271,1.94-1.91c0.967-1.275,2.258-2.545,3.225-3.505c0.325-0.321,0.649-0.643,0.967-0.963
		c0.649-0.947,1.616-1.907,2.582-2.863c0.649-0.643,1.292-1.269,1.94-1.916C38.415,216.825,39.381,215.557,40.672,214.274"/>
	<path fill="#7C3D44" d="M88.451,173.459H20.334c2.907,2.553,6.131,5.103,10.012,7.334h48.099
		C81.995,177.934,85.219,175.69,88.451,173.459"/>
	<path fill="#7C3D44" d="M103.943,164.217H10.652c1.615,1.902,4.198,4.468,7.105,7.331h73.599
		C96.521,168.363,100.712,165.813,103.943,164.217"/>
	<path fill="#7C3D44" d="M389.961,283.149h53.905c-3.874-2.55-8.396-5.101-13.229-7.331h-30.996
		C396.093,278.676,393.186,280.921,389.961,283.149"/>
	<path fill="#7C3D44" d="M377.048,292.395h78.438c-2.258-2.226-5.165-4.782-8.714-7.333h-59.396
		C383.504,287.933,379.948,290.49,377.048,292.395"/>
	<path fill="#7C3D44" d="M75.858,182.709H33.89c4.847,2.871,10.662,5.422,17.118,7.339H66.82
		C69.727,187.496,72.951,184.938,75.858,182.709"/>
	<path fill="#7C3D44" d="M463.883,190.04c2.905-3.828,5.164-7.332,7.104-10.518c-0.324,0-0.324-0.32-0.647-0.32h-0.325
		c-0.643-0.642-1.615-0.962-2.899-1.269v-0.32c-1.299-0.321-2.583-0.969-4.198-1.603h-0.324c-1.615-0.636-3.557-1.269-5.489-1.591
		c0,0-0.324,0-0.324-0.313c-0.967,0-2.258-0.329-3.225-0.649c-7.431-1.273-17.436-1.902-28.731,0
		c-7.098,1.284-14.853,3.507-23.241,7.339c-6.456,2.865-12.911,6.377-20.018,11.157l-0.317,0.321h-7.755
		c-0.635,2.229-1.282,4.461-1.933,6.689l-2.583,2.552l-7.747,7.338l-7.747,7.332l-1.94,1.91l-2.258,1.923
		c0,0,0.643-0.648,1.291-1.923c0.325-0.313,0.649-0.948,0.649-1.262c0.967-1.604,1.934-3.513,2.899-6.069
		c1.299-2.872,2.906-6.691,4.197-11.159v-0.32c0.325-0.954,0.975-1.901,1.299-3.191v-0.313c0.317-0.964,0.636-2.231,0.959-3.507
		c0.649-1.91,0.976-3.513,1.299-5.422c0.317,0,0.317-0.32,0.317-0.32c0.324-1.276,0.649-2.544,0.649-3.826
		c0.316-0.643,0.316-1.274,0.642-1.91c0.325-0.961,0.325-2.236,0.649-3.506c0.316-1.281,0.643-2.549,0.643-3.513l0.324-0.32
		c0-0.633,0-1.273,0.324-1.902v-0.318c0-0.97,0.323-1.925,0.648-3.192v-0.314c0-0.967,0.312-2.242,0.312-3.512
		c0.323-1.918,0.648-3.514,0.974-5.43v-0.307c0.324-0.969,0.324-2.236,0.324-3.506c0.648-3.514,0.967-7.346,1.291-11.172v-0.313
		c0.325-2.237,0.325-4.782,0.648-7.019c0.644-9.248,0.968-19.132,0.968-29.969v-0.313c0-5.108,0-10.531-0.324-16.268v-2.236
		c0-2.23,0-4.772-0.325-7.02v-2.229c-0.317-2.864-0.317-6.057-0.642-9.248c0-3.184-0.325-6.056-0.649-9.247V59.63
		c-0.317-2.87-0.642-6.062-0.642-8.921v-0.327c-0.325-2.235-0.649-4.46-0.975-7.019V41.77v-0.309
		c-0.648-2.559-1.285-5.108-1.608-7.333c-0.324-0.961-0.648-1.923-0.648-2.869c0,0-0.967,0.319-2.259,0.626
		c-2.266,0.963-6.455,2.243-10.979,5.102h-0.316c-2.907,1.597-5.813,3.835-9.363,6.377c-0.324,0.322-0.974,0.969-1.291,1.29
		c-0.324,0-0.324,0.308-0.643,0.308l-1.615,1.597l-0.324,0.318c-0.648,0.643-1.291,0.962-1.616,1.59c-0.316,0-0.316,0.32-0.642,0.32
		c-1.94,2.244-4.198,4.467-6.132,7.338h-0.324c-0.649,1.283-1.616,2.552-2.583,3.82c-1.94,2.87-3.873,5.741-5.813,9.247
		c-0.967,1.916-1.615,3.506-2.583,5.424v0.32c-0.647,1.273-1.298,2.234-1.607,3.504c-0.649,1.924-1.298,3.514-1.94,5.423
		c0,0-0.323,0.314-0.323,0.635c-0.324,0.961-0.649,2.243-0.968,3.191c-0.648,1.916-1.291,3.506-1.616,5.107
		c-0.323,1.27-0.647,2.225-0.647,3.187c-0.325,0.319-0.325,0.641-0.325,1.268c-0.316,0.643-0.316,1.276-0.635,1.916
		c0,1.276-0.324,2.231-0.649,3.515c0,0-0.323-1.282-0.974-3.515h-7.423c1.939,2.872,3.225,5.423,4.198,7.34h3.225l-0.317,1.909
		h-1.614c0.642,1.283,0.966,2.23,0.966,2.23l-1.291,18.503l-0.317,5.095v2.23l-0.324,6.057c-0.324-1.275-0.648-2.229-0.974-3.186
		c-0.649-1.597-0.967-3.191-1.609-5.103c-0.647-0.962-0.974-2.229-1.614-3.506c-0.325-1.282-0.975-2.557-1.291-3.512v-0.32
		c-0.967-1.582-1.94-3.506-2.907-5.423c-0.643-1.909-1.616-3.819-2.907-5.729c-1.283-2.559-2.582-4.789-4.19-7.34
		c-0.324-0.642-0.648-1.273-0.975-1.909h-0.316c-1.94-3.189-3.881-6.384-6.14-9.256c-1.946-3.185-4.197-6.376-6.772-9.562
		c-1.623-2.23-3.556-4.772-5.489-7.02h-0.324c-0.324-0.945-0.967-1.595-1.615-2.229c-1.935-2.549-3.873-4.774-6.133-7.332
		c-0.647-0.633-1.298-1.274-1.607-1.916h-0.324c-1.939-2.543-4.198-4.781-6.456-7.331c-0.648-0.641-1.298-1.269-1.939-1.916
		c-2.259-2.537-4.841-5.104-7.105-7.333c-0.642-0.633-1.284-1.274-1.934-1.902c-2.582-2.563-5.164-5.106-7.431-7.346
		c-5.807-5.408-11.289-10.516-16.461-14.977c-1.607-1.282-2.905-2.559-4.197-3.506v-0.32c-0.643-0.648-1.608-1.282-2.259-1.924
		c-1.607-1.262-3.225-2.545-4.516-3.826c-2.265-1.909-4.522-3.813-6.78-5.415c-2.582-2.238-4.841-4.146-7.104-5.741
		c-2.899-2.225-5.165-4.141-7.099-5.409c-0.324,0-0.648-0.32-0.648-0.646c-0.317,0-0.644-0.322-0.967-0.645
		c-0.324,0-0.324-0.312-0.643-0.312l-0.325-0.321c0,0-0.323,0-0.323-0.321l-0.324,0.321c-0.325,0.321-0.644,1.276-1.616,2.871
		c0,0.321,0,0.635-0.317,0.954c-0.323,0.636-0.648,1.283-0.974,1.911c0,0.642-0.317,0.961-0.317,1.597h-0.324
		c0,0.646-0.324,1.281-0.324,1.596l-0.317,0.319c-1.291,3.826-2.59,8.936-3.23,14.991c-0.325,3.19-0.325,6.05-0.325,9.567
		c0,0.948,0.325,2.225,0.325,3.181v0.326c0,1.269,0.323,2.223,0.323,3.506v0.32c0.317,1.588,0.644,3.499,0.968,5.414
		c0.323,1.91,0.648,3.833,1.291,5.735c0.324,0.957,0.648,2.229,0.967,3.513c1.291,4.788,3.23,9.885,5.813,14.983v0.319
		c1.292,2.237,2.583,4.464,3.874,7.013c0.324,0.636,0.644,1.284,1.291,2.229c1.616,2.56,3.226,5.423,5.165,8.294l0.644,0.962
		h-21.951c13.562,2.871,21.951,5.735,25.183,7.324h1.291l0.644,0.643l1.291,1.273l0.974,0.956l17.104,17.541v0.315v-0.315
		c-4.841-2.229-9.998-4.146-14.846-5.743h-0.325c-1.607-0.634-3.225-1.273-5.163-1.917c-4.198-1.273-8.391-2.542-12.589-3.497
		c-1.615-0.636-3.23-0.962-4.848-1.28h-0.642c-3.226-0.956-6.456-1.599-10.005-2.226h-0.325c-1.615-0.319-3.231-0.646-4.84-0.962
		c-3.558-0.641-7.105-1.276-10.338-1.596h-0.316c-15.17-2.23-30.022-3.192-43.901-3.192c-20.342-0.318-38.418,0.643-50.682,1.916
		c-9.363,0.956-15.501,1.918-16.792,1.918h-0.317h-0.325h0.325c-4.522,0.954-9.362,1.916-13.879,2.863c0,0,0.317,0.962,0.643,2.559
		c0.323,0.636,0.323,1.269,0.642,1.909c0.325,0.643,0.325,0.963,0.649,1.588c0.316,0.644,0.642,0.963,0.642,1.599l0.325,0.318
		c0,0.328,0.324,0.962,0.648,1.598v0.32c0.968,1.597,1.935,3.505,3.226,5.422l0.325,0.313c0.323,0.64,0.642,0.953,0.966,1.596
		c0,0,0,0.313,0.325,0.313c0.324,0.648,0.642,0.969,0.967,1.596l0.324,0.321c0.967,1.273,1.939,2.558,2.906,3.506
		c0.325,0.64,0.967,1.275,1.609,1.923c0.324,0.627,0.648,0.949,1.291,1.271c0,0.317,0.325,0.64,0.325,0.64l1.615,1.597l0.325,0.313
		c1.291,1.273,2.582,2.558,4.191,3.826c1.298,1.274,2.907,2.235,4.521,3.505h0.325c0.643,0.643,1.616,1.275,2.258,1.924h0.325
		c0.649,0.628,1.616,1.269,2.583,1.902c2.258,1.281,4.522,2.552,7.099,3.826c1.29,0.647,2.589,1.274,3.88,1.915h0.317
		c1.291,0.636,2.258,1.277,3.874,1.589c0,0.328,0,0.328,0.324,0.328c1.292,0.321,2.583,0.949,3.874,1.59
		c1.933,0.642,4.198,1.275,6.131,1.924c1.94,0.628,3.874,0.946,5.814,1.583c0.642,0,1.291,0.317,1.933,0.317
		c0.649,0.324,1.292,0.324,2.265,0.637c1.291,0.326,2.9,0.647,4.841,0.969c0,0-29.057,8.279-60.688-3.506H19.368l-11.621,5.408
		c0,0,0.324,0.647,1.292,1.915h99.098c3.556-1.596,5.172-1.915,5.172-1.915l33.571-0.636c-6.131,2.551-12.271,5.11-18.077,7.979
		c-3.874,1.904-7.754,3.826-11.296,5.729c-2.265,1.284-4.198,2.552-6.456,3.833c-1.94,0.948-4.198,2.23-6.139,3.506
		c-0.967,0.636-2.258,1.269-3.231,1.91c-1.933,1.282-3.549,2.55-5.481,3.826c-0.324,0-0.324,0-0.649,0.32
		c-1.609,0.962-3.225,2.229-4.84,3.186c-0.967,0.647-1.94,1.596-2.907,2.236c-1.609,0.955-3.225,2.229-4.84,3.507
		c-0.325,0-0.325,0-0.325,0.312c-2.583,1.598-4.84,3.514-7.423,5.424c-1.291,0.962-2.907,2.243-4.198,3.513
		c-0.325,0-0.325,0.313-0.642,0.313c-3.557,2.871-7.105,5.742-10.33,8.928c-0.325,0-0.325,0.32-0.649,0.32
		c-1.292,1.275-2.583,2.244-3.549,3.506c-2.265,1.923-3.874,3.512-5.813,5.429c-0.317,0-0.317,0.314-0.643,0.314
		c-2.907,2.877-6.132,6.063-8.721,8.934c-0.317,0-0.317,0.32-0.643,0.32c-1.615,1.902-3.549,3.819-5.165,5.729h-0.323
		c-2.9,3.191-5.49,6.378-8.072,9.248h-0.318c-1.939,2.552-4.197,4.789-6.139,7.339c-2.582,3.191-5.165,6.376-7.422,9.241
		c-2.583,3.506-5.165,6.696-6.781,9.248H5.489c-0.323,0.634-0.974,1.282-1.298,1.91v0.319c-0.642,0.962-1.608,1.924-1.933,2.559
		c-0.967,1.269-1.616,2.544-2.258,3.507c0,0,2.582,1.908,7.423,3.817h0.324c2.583,0.962,5.807,1.924,9.681,2.564
		c0.974,0.307,1.616,0.307,2.582,0.627h0.325c0.967,0,1.934,0.32,2.907,0.32h0.324c0.967,0.32,2.259,0.32,3.225,0.32
		c7.098,0.635,15.177,0,24.215-1.909h0.318c1.292-0.327,2.906-0.648,4.521-1.281c3.225-0.956,6.781-1.902,10.33-3.507
		c0.325,0,0.966-0.319,1.291-0.641c0.967-0.313,1.616-0.628,2.583-0.948c0.642-0.327,1.608-0.647,2.258-0.96
		c0.649-0.323,1.291-0.644,1.616-0.964c0.967-0.634,1.933-0.947,2.907-1.262c0.316-0.32,0.642-0.647,0.966-0.647
		c2.258-1.274,4.516-2.544,6.456-3.826c0.642-0.319,0.967-0.642,1.616-0.955c1.291-0.633,2.582-1.597,3.873-2.551
		c0,0-0.649,1.283-1.94,3.506h6.138c0.643-2.552,1.284-4.773,2.259-7.332c0-0.632,0.317-1.269,0.642-1.916
		c0.648-2.543,1.292-4.779,2.265-7.331c0.317-0.642,0.317-1.271,0.643-1.91c0.648-1.596,1.291-3.186,1.615-4.787
		c0.317,0,0.317-0.322,0.317-0.643c1.616-3.504,1.616-3.812,1.94-4.458c0.324-1.276,0.967-2.866,1.615-4.147
		c0.325-0.955,0.643-1.902,1.292-2.552c0-0.954,0.324-1.596,0.643-2.223c1.292-2.56,2.265-4.788,3.556-7.332
		c0.325-0.647,0.643-1.283,0.967-1.925c0.643-1.596,1.616-2.87,2.259-4.132c0.642-0.969,1.291-2.245,1.615-3.192
		c0.643-0.648,0.968-1.28,1.292-1.923c0.649-1.262,1.291-2.553,2.259-3.506c1.291-1.918,2.583-4.134,3.874-5.736
		c1.615-2.557,3.549-5.095,5.164-7.338c0.649-0.636,1.291-1.269,1.616-1.91c1.291-1.597,2.258-2.544,3.225-3.824l0.324-0.32
		l3.231-3.187c0.642-0.961,1.292-1.589,1.934-2.236c1.291-1.275,2.907-2.544,4.198-3.828c1.291-0.954,2.907-2.222,4.198-3.184
		c0.967-0.963,1.939-1.596,2.583-2.23c3.874-2.863,8.064-5.106,11.946-7.339c1.291-0.633,2.574-1.273,3.873-1.902
		c3.874-1.922,7.748-3.191,11.62-4.474c0.968-0.32,1.935-0.635,2.907-0.955h0.317c0.967-0.319,1.616-0.641,2.582-0.641h0.325
		c1.614-0.627,3.549-0.949,5.165-1.27c10.653-1.918,20.017-1.918,27.438-1.282c1.94,0.32,4.522,0.641,7.423,1.282
		c0.649,0.319,1.298,0.319,2.258,0.643c0.649,0.307,1.616,0.307,2.266,0.627h0.325c0.642,0.32,1.283,0.32,2.257,0.641
		c0.967,0.32,1.608,0.635,2.583,0.955c0.967,0.32,1.934,0.646,2.898,0.962c0.976,0.319,1.623,0.634,2.583,0.955
		c1.94,0.955,3.874,1.587,5.813,2.557c1.291,0.629,2.907,1.271,4.19,1.902c0.975,0.649,1.947,1.284,3.231,1.598
		c0.974,0.635,1.94,1.273,2.907,1.909h0.316c0.975,0.647,1.947,1.274,2.914,1.916c1.291,0.642,2.258,1.274,3.231,1.916
		c0.96,0.636,1.934,1.269,2.899,1.91c1.615,1.282,2.906,2.229,4.517,3.504l0.324,0.322c1.615,1.282,2.906,2.55,4.197,3.506
		c0.975,0.647,1.608,1.596,2.258,2.236c1.291,0.955,2.266,2.229,3.231,3.507h0.317c0.974,1.28,1.939,2.55,3.23,3.824
		c0.325,0.643,0.967,1.274,1.292,1.91c0.966,0.962,1.615,2.243,2.582,3.513c0.649,1.27,1.616,2.544,2.258,3.825
		c0.325,0.636,0.649,1.283,0.975,1.911c0.643,1.274,1.291,2.235,1.615,3.505c0.643,1.273,0.959,2.564,1.608,3.826
		c0,0.643,0.324,1.273,0.649,1.923c0.323,1.269,0.642,2.225,0.642,3.506h0.325v0.314v0.634c0,0,0,0.319,0.316,0.319
		c0,0.634,0.324,1.604,0.324,2.551c0,0.642,0,1.276,0.324,2.236v7.021v2.223c0,0.969-0.324,1.917-0.324,3.191v0.32
		c0,0.956-0.324,2.229-0.324,3.513c0,1.901-0.316,3.507-0.643,5.417v0.313c0.325,0,0.643,1.596,0.967,3.833
		c0.975,2.544,1.94,6.376,3.549,11.157c0.325,0.955,0.649,2.238,0.975,3.187c0,0.321,0,0.321,0.324,0.641
		c0.643,1.918,1.284,3.506,1.934,5.416c0.967,3.191,2.266,6.069,3.55,9.255c1.298,3.191,2.906,6.377,4.197,9.568h0.324
		c2.582,5.416,5.808,11.151,9.363,16.579c0.643,0.628,0.966,1.27,1.608,1.903c0.648,1.289,1.616,2.238,2.59,3.505l0.324,0.321
		c0.96,1.274,1.934,2.236,2.899,3.519c1.615,1.903,3.231,3.827,5.164,5.416c0,0,1.292,4.469-7.43-2.558
		c-0.635-0.634-1.933-1.589-3.226-2.858c-0.323-0.646-0.967-0.961-1.29-1.603h-0.317c-1.623-1.588-3.556-3.504-5.813-5.742
		c-0.643-0.635-1.292-1.275-2.266-1.903c-2.258-2.234-4.516-4.788-7.098-7.346c-0.968-0.632-1.616-1.268-2.258-1.908
		c-2.259-2.552-4.841-5.103-7.105-7.325c-0.967-0.647-1.607-1.603-2.258-2.243l-3.549-3.507c-1.291-1.274-2.582-2.55-3.558-3.818
		c-0.967-0.642-1.607-1.597-2.574-2.236c-0.975-0.948-1.63-1.917-2.582-2.872c-0.649-0.319-0.975-0.954-1.616-1.269
		c-0.324-0.634-0.648-0.962-0.967-1.282c-1.615-1.596-3.231-3.192-4.197-4.461c-0.325,0-0.649-0.319-0.649-0.633
		c-0.324,0-0.324,0-0.324-0.314c-3.55-3.19-5.482-5.43-5.482-5.43h-0.324c-0.648-0.32-2.582-0.947-5.172-1.916
		c-0.635-0.32-1.607-0.954-2.575-1.275c-0.967-0.642-1.934-0.946-2.906-1.59c-1.934-1.282-4.198-2.862-6.456-4.466
		c-0.649-0.642-1.291-1.271-2.259-1.91c-1.615-1.596-3.549-3.513-5.172-5.43c-0.316-0.626-0.96-1.274-1.607-1.909
		c-0.324-0.634-0.967-1.274-1.291-2.224c-0.649-0.969-1.609-2.243-2.258-3.191v-0.32c-0.649-0.961-1.3-2.235-1.94-3.513
		c-0.317-0.954-0.643-1.596-0.643-2.223c-0.649-1.283-1.291-2.879-1.615-4.477l-0.981-2.855c-0.628-1.924-0.952-3.521-1.602-5.429
		c0,0,0-0.314-0.324-0.314c-0.324-1.281-0.643-2.237-0.967-3.506c-0.324-0.648-0.643-1.28-0.643-1.923
		c-1.292-3.506-2.59-6.69-4.197-9.242c-0.325-0.641-0.649-1.281-0.975-1.908v-0.32c-0.317-0.642-0.643-1.281-1.292-1.597v-0.32
		c-0.642-0.947-1.607-2.229-2.582-3.191c-0.648-0.636-1.284-1.269-1.934-1.91c-0.648-0.642-1.291-1.274-1.94-1.596
		c0-0.32,0-0.32-0.316-0.32c-0.648-0.306-1.291-0.954-1.94-1.274c-0.324,0-0.324,0-0.324-0.321c-0.96-0.313-1.607-0.633-2.258-0.954
		h-0.324c-1.934-0.635-3.55-1.27-5.808-1.589h-0.324c-0.967-0.32-1.939-0.32-2.907-0.642h-0.642h-3.231h-0.643h-3.549
		c-0.967,0-1.616,0-2.583,0.32h-0.974c-0.324,0.319-0.967,0.319-1.291,0.319s-0.968,0.32-1.291,0.32
		c-0.317,0-0.644,0.321-0.968,0.321c-0.642,0-0.967,0.313-1.614,0.626h-0.644c-0.648,0.321-0.974,0.644-1.615,0.964h-0.324
		c-0.643,0.313-1.291,0.634-1.934,0.954h-0.325c-0.642,0.647-1.291,0.954-1.939,1.274c-1.608,0.954-3.226,2.237-4.517,3.506
		c-0.642,0.32-1.291,0.962-1.614,1.596h-0.325c-0.643,0.648-0.967,0.962-1.608,1.597v0.32c-0.648,0.634-0.967,0.955-1.615,1.597
		v0.32c-0.643,0.627-0.967,1.269-1.615,1.908c-0.325,0.636-0.967,1.283-1.291,1.911c-0.649,0.954-1.292,2.235-1.935,3.185
		c0,0.32,0,0.32-0.323,0.642c-0.649,1.596-1.616,3.506-2.259,5.429c-0.323,1.269-0.974,2.225-1.291,3.506v0.314
		c-0.324,1.588-0.974,3.505-1.298,5.429c0,1.27-0.316,2.544-0.316,3.826c-0.325,1.59-0.325,3.506-0.325,5.729
		c0,4.154,0.325,8.293,1.291,12.754c0.325,1.283,0.648,2.551,0.967,3.833c0.649,2.864,1.616,6.05,2.907,8.921v0.32
		c0.325,0.647,0.648,1.284,0.967,1.916c0.324,1.271,0.967,2.559,1.616,3.508v0.318c0.647,1.283,1.291,2.23,1.939,3.506
		c0.324,0.634,0.643,1.282,0.967,1.91c0.324,0.642,0.648,0.962,0.967,1.596c0.967,1.916,2.258,3.826,3.557,5.742
		c1.291,1.917,2.575,3.826,3.866,5.735h0.324c3.231,4.468,6.78,8.935,10.653,13.075c0.644,0.642,1.292,1.276,1.935,1.908
		c2.265,2.558,4.848,4.788,7.43,7.346c0.644,0.628,1.291,1.27,2.258,1.903c2.583,2.55,5.814,5.102,8.722,7.345
		c0.967,0.637,1.608,1.271,2.575,1.903c3.557,2.551,6.78,5.108,10.654,7.332c5.164,3.512,10.336,6.377,15.818,9.248
		c1.292,0.642,2.583,1.281,3.874,1.917v0.313c7.104,3.514,14.203,6.378,20.977,9.256c4.205,1.27,8.079,2.871,11.953,3.818
		c3.873,1.276,7.422,2.566,11.296,3.515c0.967,0,1.94,0.313,3.226,0.634c0,0,4.521,0.962,12.911,1.909h0.324
		c2.265,0.319,4.198,0.641,6.78,0.962h0.648c1.291,0.318,2.258,0.318,3.549,0.635c1.292,0,2.583,0.32,4.198,0.32h0.96
		c0.975,0.319,2.266,0.319,3.557,0.647h0.648c1.291,0,2.9,0.321,4.516,0.321h0.975c1.284,0.305,2.583,0.305,3.867,0.305
		c0.323,0.321,0.647,0.321,0.974,0.321c1.615,0,3.225,0,4.84,0.321h0.967c1.616,0,2.907,0.313,4.198,0.313h1.291
		c1.94,0.319,3.558,0.319,5.489,0.319h0.967c1.291,0.32,2.907,0.32,4.516,0.32h1.623c1.608,0,3.55,0.313,5.482,0.313h0.649h5.481
		c0.324,0,0.974,0,1.298,0.321h6.132c-0.324-0.321-0.648-0.321-0.975-0.636c10.013,0,20.018,0.313,30.996,0
		c7.099-0.319,14.521-0.64,21.951-1.274c4.516-0.626,8.721-1.275,13.229-2.231c0,0-10.33-45.6-73.592-57.391h-0.649
		c0.649-0.328,0.96-0.328,1.609-0.328h-9.355h-31.964c0,0,1.94-0.954,5.489-2.536c2.907-1.604,7.105-3.84,12.265-6.696
		c0.974-0.648,2.265-1.283,3.556-2.244c0.643-0.315,1.616-0.948,2.258-1.264l0.324-0.324c0.967-0.645,1.934-0.956,2.583-1.599h0.324
		c0.967-0.627,1.934-1.269,2.906-1.917h0.317c0.967-0.633,1.616-1.273,2.582-1.9c0.325,0,0.325,0,0.325-0.321
		c1.291-0.642,2.258-1.282,3.23-1.917c1.608-0.953,3.226-2.236,5.158-3.191c0-0.319,0.324-0.319,0.648-0.635
		c6.456-4.14,13.562-9.246,20.983-14.67c3.231-2.543,6.456-4.779,9.688-7.331c2.258-1.91,4.516-3.827,7.098-5.743
		c1.616-1.275,3.231-2.545,5.165-4.14c3.549-2.872,6.78-5.742,10.005-8.614c4.198-3.826,8.383-7.652,11.945-11.479
		c2.59-2.552,4.841-4.781,7.099-7.325c0.649-0.648,1.298-1.28,1.947-1.923v-0.313c2.899-3.19,5.482-6.063,8.065-8.929
		c0-0.319,0-0.319,0.323-0.319c3.55-4.461,7.099-8.929,10.005-12.753c0.968-1.276,1.616-2.552,2.582-3.507
		C462.915,191.636,463.558,190.688,463.883,190.04 M318.617,134.243c0.643-2.229,1.291-4.788,1.934-7.338
		c0.325-0.634,0.325-1.27,0.648-1.91c0.317-0.955,0.968-2.223,1.291-3.513c0.325,0,0.325-0.313,0.325-0.313
		c0.642-1.273,0.959-2.224,1.608-3.506c0.323-0.641,0.648-1.281,0.974-1.908c0.644-1.282,1.608-2.559,2.258-3.507
		c0,0,0-0.328,0.317-0.328c0.648-1.273,1.623-2.222,2.583-3.505c0.324-0.642,0.974-1.273,1.615-1.909
		c0.324-0.636,0.974-1.28,1.291-1.597c0.648-0.641,1.292-1.282,1.939-1.594v2.229c0,0.326,0,0.648,0.325,0.962
		c0,1.589,0.324,3.497,0.324,6.063c0.316,0.947,0.316,1.581,0.316,2.222c0,0.964,0.325,1.91,0.325,2.872
		c0.317,1.91,0.317,4.141,0.643,6.377c0,0.955,0.323,1.917,0.323,2.865c0,0.954,0.325,1.923,0.325,2.872
		c0,1.594,0.324,3.19,0.324,4.466c0,2.23,0.317,4.146,0.317,6.058v3.191v2.229v3.186c0,0.32,0,0.962-0.317,1.275v2.872
		c0,0.641,0,1.274-0.324,1.923c0,1.27,0,2.537-0.325,3.506v0.947c-0.323,0.956-0.323,1.924-0.323,2.871
		c-0.324,0.635-0.324,1.274-0.324,1.918c-0.317,1.269-0.644,2.544-0.96,3.825c-0.324,1.269-0.324,2.542-0.649,3.512
		c-0.324,0.629-0.324,1.271-0.647,1.902c-0.644,2.871-1.609,5.103-2.259,7.339c-0.324,0.636-0.643,1.59-0.967,2.23
		c0,0.313,0,0.635-0.325,0.962c-0.323,0.319-0.323,0.634-0.647,1.269c0,0.321-0.332,0.643-0.332,1.275
		c-0.312,0-0.312,0.32-0.312,0.642c-0.316,0.32-0.642,0.954-0.642,1.269c-0.325,0-0.325,0.32-0.325,0.32
		c-0.324,0.643-0.324,0.956-0.647,1.275c-0.325,0.326-0.325,0.647-0.325,0.969c-0.317,0.308-0.643,0.628-0.967,1.269
		c-0.317,0.314-0.643,0.955-0.967,1.596v0.321c-0.324,0.313-0.643,0.947-1.292,1.59v0.313c-0.323,0.321-0.974,0.969-1.291,1.291
		v0.306c-0.642,0.642-1.291,1.275-1.614,1.916c-0.644,0.643-1.292,1.275-1.935,1.91c-1.939,1.924-4.198,3.513-6.779,5.43h-0.325
		c-0.967,0.627-1.615,1.27-2.575,1.908c-1.299,0.636-2.265,1.283-3.556,1.911c-0.644,0.319-1.292,0.641-2.267,0.954
		c-0.642,0.32-1.284,0.642-2.258,1.281c0,0,6.456-6.376,10.654-16.907c0,0,0.325,0,0.325-0.313c0.323-1.275,0.967-2.23,1.29-3.507
		c0.643-1.91,0.968-3.833,1.291-5.742c0.324-1.275,0.324-2.544,0.649-3.506v-0.32v-5.095v-2.87v-1.284v-1.902
		c-0.325-1.288-0.325-2.243-0.325-3.512v-3.825v-1.918v-7.324c0-0.647,0.325-1.282,0.325-1.923v-3.508v-0.641
		c0.324-0.954,0.324-2.229,0.324-3.186c0.311-0.635,0.311-1.272,0.311-1.916c0.324-2.551,0.649-5.096,1.298-7.331
		C318.293,135.526,318.617,134.877,318.617,134.243 M237.59,93.439L237.59,93.439v-3.515v-2.236v-3.191v-0.319
		c0.324-1.262,0.324-2.547,0.642-3.508v-1.906c0,0,0.649,0.632,1.616,1.906c0,0.321,0.324,0.642,0.648,1.283h0.323
		c1.935,2.544,4.842,6.691,8.716,11.486h0.323c1.284,1.581,2.9,3.811,4.833,5.727c0.975,1.276,2.266,2.231,3.231,3.515
		c1.939,1.908,3.549,3.825,5.489,5.734c2.583,2.551,4.841,4.781,7.747,7.34c0.324,0.319,0.967,0.946,1.615,1.269
		c0,0.32,0.325,0.641,0.649,0.641c0.959,1.282,2.258,2.231,3.549,3.506c1.291,1.282,2.582,2.551,3.859,3.826
		c0.655,0.642,1.306,1.276,1.946,1.91c1.291,1.275,2.259,2.243,3.232,3.511c0.324,0,0.324,0.321,0.324,0.321
		c0.967,1.276,2.258,2.229,3.225,3.506c0.648,0.634,0.975,1.283,1.615,2.23c1.939,2.235,3.874,4.78,5.489,7.019
		c0.324,0.956,0.967,1.595,1.283,2.229c1.623,2.23,3.231,4.78,4.523,7.333c0.324,0.641,0.647,1.274,0.974,1.923
		c0.635,1.27,1.284,2.226,1.608,3.506v0.307c0.648,0.961,0.974,2.244,1.616,3.513c0,0.635,0.323,1.274,0.642,1.918
		c0.324,1.269,0.649,2.544,0.974,3.511v0.314c0.317,0.955,0.643,2.224,0.643,3.512c0.325,0.629,0.325,1.271,0.325,1.902
		c0.323,2.553,0.648,5.103,0.323,7.339v1.91c-0.323,2.551-0.974,5.108-1.614,7.332c-0.325,0.647-0.649,1.597-0.968,2.236
		c0,0.635-0.323,0.955-0.648,1.596c-0.317,0.635-0.643,1.27-0.967,1.911c0,0.313-0.324,0.954-0.324,1.28
		c-0.649,0.628-0.975,1.59-1.608,2.224v0.32c-0.325,0.643-0.974,1.274-1.299,1.91c-0.642,0.962-1.615,1.596-2.258,2.558
		c-0.317,0.313-0.643,0.955-0.967,1.271c-0.324,0.318-0.648,0.641-0.975,0.955c-0.642,0.967-1.607,1.595-2.258,2.556v-0.961v-0.628
		c0-0.319,0.325-0.641,0.325-0.641V206.3v-0.636v-0.318v-0.956v-0.313v-0.962c0.324,0,0.324,0,0.324-0.32v-1.274
		c0-2.551,0-5.734-0.649-9.241c0-1.91-0.316-3.833-0.642-5.742c-0.325-1.275-0.649-2.544-0.974-3.506v-0.32
		c-1.284-4.468-3.542-9.249-6.456-14.028c0,0,0-0.314-0.317-0.314c-0.643-0.961-1.291-1.916-1.94-2.557
		c-1.292-1.918-2.583-3.507-4.197-5.104l-0.332-0.318c-0.312-0.637-0.952-0.956-1.603-1.598v-0.307
		c-0.648-0.32-1.291-0.969-1.934-1.604c-1.615-1.9-3.549-3.504-5.489-5.414c-0.648-0.64-1.291-1.281-1.939-1.917
		c0,0-0.317,0-0.317-0.319c-1.298-0.947-2.582-2.23-3.881-3.506c-0.643-0.635-1.291-1.272-1.934-2.229
		c-2.59-2.237-4.841-4.461-7.099-7.019c-0.324-0.635-0.974-1.598-1.622-2.23c-0.96-0.962-1.934-2.229-2.899-3.506
		c-0.975-1.282-1.935-2.557-2.582-3.832c-0.649-0.634-0.976-1.27-1.3-1.91c-1.607-2.223-2.899-4.782-4.19-7.332
		c-0.317-0.641-0.643-1.281-0.967-1.908c-0.648-1.282-0.974-2.237-1.615-3.507c-0.317-1.282-0.967-2.55-1.291-3.833
		c0-0.642-0.324-1.273-0.644-1.909c-0.647-2.559-0.974-4.787-1.298-7.34c-0.316-0.64-0.316-1.273-0.316-1.916
		C237.914,95.982,237.59,94.708,237.59,93.439 M288.92,199.287c-0.648-0.634-1.615-1.9-2.258-2.87l-0.324-0.321
		c-0.324-0.633-0.975-1.275-1.299-1.901h-0.317c-0.324-0.642-0.967-1.282-1.615-1.917c-0.324-0.641-0.967-1.27-1.615-2.236
		c-0.656-0.319-0.968-0.956-1.608-1.597c-2.907-3.187-6.132-6.378-10.013-9.563c-0.968-0.32-1.615-0.947-2.266-1.59
		c-0.311,0-0.311-0.326-0.635-0.326c-0.649-0.636-0.974-0.954-1.616-1.274c-0.324-0.314-0.324-0.314-0.647-0.635
		c-1.935-0.947-3.558-2.229-5.49-3.5c-0.966-0.641-1.933-0.97-2.899-1.602h-0.323c-0.975-0.643-1.935-1.275-2.907-1.591
		c-1.291-0.635-2.583-1.281-4.198-1.916l-0.325-0.32c-1.607-0.641-2.898-1.268-4.516-1.908c-1.939-0.644-3.549-1.283-5.164-1.918
		c-4.516-1.597-9.039-3.191-13.886-5.1c-0.318,0-0.637-0.324-1.284-0.324c-1.616-0.632-3.231-1.272-5.172-1.9
		c-1.609-0.647-3.55-1.282-5.482-1.923c-2.907-1.27-5.808-2.229-8.714-3.508c-0.325,0-0.325,0-0.649-0.319
		c-0.967-0.32-2.258-0.947-3.549-1.596h-0.648c-1.284-0.636-2.9-1.274-4.198-1.91c-1.291-0.635-2.575-1.272-4.191-2.229
		c-0.967-0.321-1.939-0.962-2.905-1.59h-0.325c-0.967-0.647-1.935-0.97-2.899-1.604c0,0-0.325,0-0.325-0.32
		c-0.974-0.32-1.614-0.947-2.582-1.589h-0.323c-0.967-0.642-1.935-1.275-2.907-1.916c-0.967-0.635-1.934-1.598-2.907-2.23
		c-2.898-2.229-5.489-4.466-7.74-7.338c-0.648-0.634-0.974-1.27-1.614-1.91c-0.325-0.321-0.649-0.955-0.976-1.275
		c-0.316-0.642-0.966-1.269-1.291-1.916c0,0,12.596,0.328,29.698,3.191c3.231,0.642,6.456,1.276,10.012,1.91
		c5.809,1.603,11.945,3.192,18.077,5.108c0,0,0.324,0,0.324,0.319c2.258,0.634,4.198,1.269,6.132,1.909
		c1.94,0.634,3.549,1.283,5.165,2.23c1.291,0.318,2.582,0.955,3.874,1.596c1.291,0.641,2.582,0.962,3.873,1.589
		c2.265,1.274,4.84,2.565,7.423,4.146c1.94,0.962,3.874,1.916,5.489,3.19c1.616,0.956,2.907,1.91,4.198,2.872
		c0.323,0,0.323,0.313,0.642,0.313c1.299,0.953,2.583,1.917,3.557,2.871c0.968,0.642,1.935,1.275,2.582,1.924
		c3.226,2.537,5.808,4.772,8.072,7.323l1.934,1.918c2.259,2.545,4.197,5.095,5.808,7.338c0.647,0.629,0.974,1.271,1.298,1.902
		c0.967,1.284,1.608,2.552,2.258,3.833c0.644,1.27,1.292,2.545,1.94,3.506c0.316,0.636,0.643,1.269,0.96,2.23
		c0.974,2.552,1.939,4.788,2.265,7.012c0.324,0.968,0.324,1.596,0.649,2.236c0.316,1.917,0.642,3.817,0.642,5.415l0.317,0.319v1.275
		v2.23v0.962v0.962c-0.317-0.328-0.317-0.648-0.643-0.962c-0.643-0.962-1.291-1.908-1.934-2.872v-0.316H288.92z"/>
	<path fill="#7C3D44" d="M328.299,385.506c-0.968-1.917-2.258-3.507-3.549-5.423c0,0,0-0.32-0.324-0.32
		c-3.226-0.319-6.781-0.954-10.33-1.589h-39.71c2.265,1.589,5.821,3.825,9.688,7.332H328.299L328.299,385.506z"/>
	<path fill="#7C3D44" d="M159.146,406.23c-0.642,2.222-0.967,4.787-1.616,7.33h32.923c0.974-2.543,1.299-4.78,1.939-7.33H159.146z"
		/>
	<path fill="#7C3D44" d="M334.114,396.981h-38.419c1.941,2.229,3.874,4.473,5.814,7.01h35.505
		C336.365,401.767,335.405,399.21,334.114,396.981"/>
	<path fill="#7C3D44" d="M160.758,387.418c0,2.552,0,4.781-0.318,7.332h27.108c-1.933-2.236-3.866-4.78-5.807-7.332H160.758z"/>
	<path fill="#7C3D44" d="M150.106,432.057h32.605c1.291-2.229,2.582-4.788,3.556-7.331h-32.611
		C152.688,427.269,151.397,429.509,150.106,432.057"/>
	<path fill="#7C3D44" d="M148.817,434.604l3.232,6.698h24.208c1.934-2.224,3.549-4.469,5.164-7.333h-32.287
		C148.817,434.291,148.817,434.291,148.817,434.604"/>
	<path fill="#7C3D44" d="M159.47,403.997h33.247c0.324-0.319,0.324-0.954,0.324-1.596c0,0,0.324,0,0.324-0.635
		c-1.291-1.596-2.906-3.192-4.197-4.78h-28.731C160.112,399.209,159.787,401.767,159.47,403.997"/>
	<path fill="#7C3D44" d="M154.302,422.81h32.929c0.967-2.231,1.935-4.788,2.582-7.332h-32.929
		C156.243,417.706,155.276,420.258,154.302,422.81"/>
	<path fill="#7C3D44" d="M80.379,283.149h11.303c0.643-2.229,0.966-4.787,1.934-7.331h-7.423
		C84.901,278.05,82.961,280.6,80.379,283.149"/>
	<path fill="#7C3D44" d="M329.595,387.418h-43.259c2.258,2.225,4.847,4.781,7.422,7.332h39.711
		C332.17,392.513,330.886,389.969,329.595,387.418"/>
	<path fill="#7C3D44" d="M160.114,457.566c0,0,2.259-1.596,6.132-4.787h-8.713L160.114,457.566z"/>
	<path fill="#7C3D44" d="M160.438,378.168c0.317,2.23,0.317,4.789,0.317,7.34h19.375c-1.616-2.236-3.232-4.787-4.848-7.34H160.438z"
		/>
	<path fill="#7C3D44" d="M159.47,368.919c0.317,1.91,0.642,4.477,0.967,7.332h13.563c-1.616-2.543-3.232-4.779-4.523-7.332H159.47z"
		/>
	<path fill="#7C3D44" d="M156.562,450.551h11.621c1.94-1.909,4.198-4.467,6.781-7.331h-21.951L156.562,450.551z"/>
	<path fill="#7C3D44" d="M127.508,83.545v-0.319c0-0.961-0.317-1.909-0.317-2.551c-0.648-5.417-3.23-10.202-7.104-13.708
		c-0.649-0.963-1.616-1.597-2.266-2.229c-1.933-1.276-3.865-2.244-5.807-2.872c-2.583-0.641-4.84-1.274-7.423-1.274
		s-5.165,0.635-7.423,1.274c-2.266,0.628-4.205,1.596-5.814,2.872c-0.966,0.634-1.616,1.268-2.583,2.229l-2.265,2.224
		c-1.933,2.558-3.542,5.75-4.516,9.254c-0.325,1.598-0.325,3.192-0.325,4.781C98.777,82.591,113.955,82.912,127.508,83.545"/>
	<path fill="#7C3D44" d="M263.095,213.955L263.095,213.955c0.317,1.281,0.317,2.551,0.642,4.154c0,0.32,0,0.32,0.324,0.634
		c0.325,1.909,0.649,3.498,1.292,5.094c0.643,1.288,0.966,2.553,1.615,3.514c0.325,0.642,0.643,1.27,0.967,1.91
		c4.191,7.972,10.33,13.073,13.237,15.31h0.311c0,0.315,0.331,0.637,0.655,0.637h0.325c0,0.313,0.316,0.313,0.316,0.632h0.324
		l0.325,0.322v-0.322v-0.318c0-0.313,0-0.313,0.324-0.634v-0.315v-0.313v-0.319v-0.327c0-0.636,0-1.275,0.324-2.223v-1.284v-1.273
		c0-0.636,0-1.598,0.324-2.229c0-2.231,0-4.783-0.324-7.339c-0.324-3.827-0.975-7.647-2.266-11.15c0-0.65-0.331-1.283-0.642-1.926
		v-0.318c-0.325-0.629-0.649-0.949-0.967-1.591c-0.649-0.634-0.975-1.275-1.3-1.916c-0.642-0.628-0.967-0.947-1.607-1.597
		c-0.649-0.633-1.291-1.274-1.94-1.903c-0.324-0.319-0.648-0.633-0.967-0.633c-3.873-2.872-8.072-3.521-10.005-0.327
		c-0.649,0.96-0.974,1.909-0.974,2.863c0,0.32,0,0.969-0.317,1.29v0.307v1.594H263.095z"/>
	<path fill="#7C3D44" d="M230.49,437.475c-1.3-1.273-2.583-2.223-3.874-3.505c-0.649-0.642-1.616-1.281-2.259-1.909
		c-2.583-2.236-5.488-4.787-8.079-7.34c-0.96-0.642-1.607-1.273-2.258-1.908c-2.575-2.56-5.158-4.788-7.747-7.332l-0.324-0.326
		c-5.481,1.916-10.006,6.063-12.264,11.156c-0.324,0-0.324,0.321-0.324,0.321c-0.323,0.642-0.323,0.962-0.643,1.595v0.328
		c-0.324,0.321-0.324,0.947-0.648,1.589c0,0.635-0.316,1.271-0.316,1.917c-0.325,1.269-0.325,2.545-0.325,4.141v2.557v0.314
		c0,0.633,0.325,1.596,0.644,2.238c0.323,2.222,0.967,4.145,2.258,6.048c0.323,0.647,0.647,0.962,0.974,1.596
		c0.642,0.635,0.967,1.275,1.291,1.59c0.643,0.968,1.291,1.596,1.934,2.236c0.968,0.955,2.266,1.604,3.231,2.559h0.324
		c0.332,0.307,0.967,0.627,1.608,0.946h0.324c0.324,0.322,0.975,0.644,1.615,0.644c0,0.313,0.317,0.313,0.317,0.313
		c0.648,0.328,0.975,0.328,1.615,0.646h0.649c0.647,0.323,0.967,0.323,1.608,0.323c0.324,0.318,0.648,0.318,0.974,0.318h0.967
		c0.967,0.309,1.616,0.309,2.258,0.309c0.975,0,1.623,0,2.258-0.309h0.649c0.324,0,0.974,0,1.291-0.318h0.967
		c0.324,0,0.649-0.323,1.291-0.323c0,0,0.324,0,0.649-0.318c0.324,0,0.647-0.328,1.291-0.328c0,0,0.316-0.313,0.643-0.313
		c0.324,0,0.648-0.32,1.298-0.644h0.317c0.649-0.319,0.967-0.641,1.615-0.946l0.325-0.32c0.967-0.634,2.258-1.598,3.225-2.237
		c0.649-0.642,1.291-1.27,1.94-2.236c1.607-1.902,3.23-4.459,3.865-7.332c0.324-0.32,0.324-0.946,0.649-1.27
		C234.363,440.348,232.423,438.758,230.49,437.475"/>
	<path fill="#7C3D44" d="M291.18,428.548v-0.321c0-0.956-0.324-2.224-0.324-3.506c-0.324-1.909-0.648-3.505-0.974-5.423v-0.319
		c0-0.954-0.317-2.226-0.644-3.507c0-0.634-0.316-1.274-0.316-1.9c-0.324-1.284-0.648-2.562-1.298-3.827
		c-0.324-1.923-0.968-3.519-1.608-5.743c-0.974-2.236-1.939-4.475-2.922-7.01c-0.952-1.924-1.926-3.842-2.893-5.75
		c-0.643-1.277-1.291-2.552-1.935-3.82c-0.974-1.604-2.258-3.506-3.23-5.429c-1.291-1.91-2.582-3.826-3.873-5.736h31.954
		c-9.688-1.909-19.367-4.468-29.056-7.339h-8.389l-1.94-1.908h3.873c-2.898-0.954-5.807-2.223-8.706-3.19
		c-0.648-0.315-1.299-0.636-1.947-0.636c-2.575-0.955-5.157-2.225-7.74-3.185c-2.266-0.963-4.848-2.229-7.43-3.514
		c-1.608-0.634-3.225-1.27-4.841-2.229c-0.643-0.319-1.291-0.637-1.934-0.955c-1.933-0.962-3.881-1.909-5.489-2.871
		c-1.615-0.642-2.899-1.598-4.198-2.224c-1.615-0.969-3.225-1.923-4.848-2.872c-0.635-0.318-1.283-0.647-1.608-0.968
		c-1.622-0.956-3.225-1.911-4.854-2.857c-1.277-0.961-2.568-1.603-3.859-2.552c-0.642-0.641-1.615-0.968-2.265-1.602
		c-1.284-0.955-2.9-1.903-4.191-2.872c-0.642-0.635-1.291-1.275-2.258-1.596c-1.291-1.275-2.582-2.231-4.197-3.508
		c-0.975-0.626-2.259-1.595-3.231-2.55c-0.967-0.643-1.934-1.59-2.907-2.229c-0.642-0.637-1.607-1.599-2.258-2.227
		c-1.608-1.282-2.907-2.563-4.198-3.833c-1.291-1.273-2.575-2.229-3.866-3.513c-1.298-1.273-2.59-2.544-3.881-3.818
		c-0.642-0.962-1.283-1.589-1.934-2.229c-1.615-1.604-2.906-3.187-4.522-4.788c0,0,0-0.321-0.316-0.321
		c-0.649-0.947-1.616-1.916-2.266-2.869c-1.615-1.911-3.225-3.827-4.841-6.058c-0.966-1.275-1.933-2.55-2.907-3.506
		c-1.292-1.909-2.583-3.506-3.874-5.093c-0.967-1.604-2.258-3.194-3.225-5.109c0,0,0,0.634-0.325,1.915v1.91v1.603
		c0,0,0,0.314-0.323,0.314v1.591v0.318c0,0.963-0.318,2.23-0.318,3.507c0,0.646-0.324,1.273-0.324,2.229s-0.325,2.23-0.325,3.514
		c-0.324,0.953-0.324,2.229-0.642,3.506c0,0.633,0,1.603-0.325,2.229c0,0.963-0.325,2.238-0.325,3.188v0.319
		c-0.323,1.274-0.642,2.552-0.642,3.514c-0.325,0.955-0.325,1.595-0.649,2.229c-0.323,2.559-0.648,4.781-1.291,7.331
		c-0.324,0.643-0.324,1.277-0.648,1.924c-0.317,2.544-0.966,4.774-1.608,7.326c-0.325,0.641-0.648,1.274-0.648,1.909
		c-0.967,2.557-1.608,5.108-2.582,7.345c-0.325,0.627-0.325,1.271-0.644,1.903c-0.648,1.283-0.974,2.55-1.616,3.825v0.329
		c-0.642,0.945-0.966,2.223-1.615,3.19c-0.317,0.626-0.643,1.582-0.967,2.224c-1.615,2.552-2.906,5.103-4.516,7.34
		c-0.649,0.318-0.974,0.946-1.292,1.268l-1.298-1.268c-0.966-1.604-2.9-3.833-4.84-7.34c-0.317-0.642-0.643-1.274-1.291-2.224
		c0-0.328-0.324-0.969-0.649-1.283V346.6c-0.317-0.318-0.642-0.961-0.967-1.587c-0.325-0.648-0.642-1.283-0.642-1.917
		c-0.325-0.644-0.649-1.27-0.968-1.918c-0.323-0.953-0.648-1.597-0.967-2.224c-0.324-0.968-0.648-1.923-0.974-3.191l-0.324-0.313
		c-0.318-1.283-0.642-2.563-1.292-3.84c0-0.635-0.324-1.27-0.642-1.909c-0.324-0.948-0.324-2.229-0.649-3.191l-0.325-0.322
		c-0.316-1.269-0.642-2.542-0.967-3.813c0-0.646-0.317-1.281-0.317-1.924c-0.648-2.229-1.291-4.772-1.615-7.331
		c0-0.635-0.325-1.273-0.325-1.909c-0.324-0.962-0.324-1.907-0.643-2.879v-0.954c-0.324-0.946-0.324-2.229-0.648-3.507
		c0-0.626-0.325-1.596-0.325-2.229c-0.325-2.224-0.642-4.468-0.966-7.02c0-2.229-0.325-4.453-0.649-6.69c0,0-0.642,2.237-1.608,6.69
		c-0.324,1.924-0.967,4.467-1.616,7.02v0.313c0,0.649,0,1.29-0.324,1.916c-0.325,0.963-0.325,2.238-0.642,3.507
		c0,1.274-0.325,2.244-0.649,3.833c0,0.636,0,1.274-0.325,1.909c0,0.955-0.316,2.231-0.316,3.505
		c-0.649,3.826-1.291,8.294-1.616,13.076c-0.324,0.641-0.324,1.595-0.324,2.236c0,1.269-0.318,2.229-0.318,3.513
		c0,1.27-0.323,2.224-0.323,3.505c0,0.627,0,1.271-0.325,1.903v0.319v2.552c0,0.635,0,1.283-0.325,2.229v2.245
		c-0.316,3.186-0.316,6.05-0.316,9.233v0.329c-0.325,0.641-0.325,1.268-0.325,1.907v7.333c0,2.87-0.325,6.057-0.325,9.247
		c0.325,0,0,0,0,0h0.325v9.25c0,6.689,0.325,13.388,0.642,20.721c0.325,2.869,0.649,6.062,0.649,9.246
		c0.323,2.873,0.642,6.063,0.966,9.249c0.325,3.19,0.642,6.056,0.967,9.249c0,0,5.489-1.271,13.237-5.743h0.324
		c0.642-0.314,0.967-0.635,1.615-0.956h0.318c0.324-0.32,0.974-0.945,1.616-1.268h0.325c0.323-0.327,0.966-0.964,1.607-1.282
		c0.975-0.643,1.94-1.27,2.589-1.909c0.643-0.642,1.292-0.963,1.935-1.596c0.324,0,0.324,0,0.324-0.321
		c0.643-0.319,1.291-0.947,1.934-1.597l3.881-3.826l1.933-1.9c2.583-2.88,4.841-6.072,7.099-9.57
		c0.974-0.96,1.616-2.236,2.265-3.505c1.935-2.872,3.549-5.751,5.165-9.255v-0.315c0.642-0.962,0.966-2.235,1.616-3.505
		c0.316-0.646,0.642-1.282,0.642-1.915c0.649-0.956,0.967-2.237,1.291-3.191c0.325-0.321,0.325-0.644,0.325-0.955
		c0.642-1.597,1.292-3.499,1.609-5.104c0.974-2.872,1.939-6.063,2.589-9.247c0.316-1.598,0.642-2.87,0.967-4.468
		c0,0,0.324,1.598,0.967,4.468h9.038c-1.291-2.545-2.582-4.781-3.549-7.333h-5.165c0-0.641,0.317-1.268,0.642-1.907h3.557
		c-0.649-1.283-1.291-2.872-1.94-4.149l0.325-3.189v-2.224l0.648-7.346v-1.903l0.316-3.191l0.649-12.118
		c0,0.634,1.284,4.788,4.19,11.483c0.324,0.635,0.648,1.271,0.975,1.591v0.313c0.642,1.282,1.291,2.55,1.933,3.826v0.318
		c0.643,0.965,1.292,2.23,1.934,3.188v0.319c0.975,1.598,1.94,3.521,3.231,5.742c0.649,0.963,1.291,2.231,1.934,3.508
		c0.649,1.28,1.616,2.55,2.266,3.833c1.291,1.586,2.258,3.505,3.549,5.095c0,0.319,0.325,0.319,0.325,0.64
		c0.642,1.284,1.615,2.231,2.258,3.507c0.649,0.641,0.974,1.281,1.615,1.908c0.648,1.276,1.615,2.245,2.583,3.514
		c0.967,1.274,1.614,2.545,2.582,3.825c0.648,0.636,0.967,1.283,1.615,1.91c1.934,2.56,3.873,4.788,5.808,7.34
		c0.648,0.633,1.291,1.269,1.616,1.915c1.933,2.543,4.197,5.096,6.455,7.324c0.648,0.644,0.975,1.276,1.615,2.246
		c1.291,0.946,2.258,2.222,3.231,3.505c0,0,0.325,0,0.325,0.32c0.959,0.947,2.258,2.225,3.224,3.185
		c0.643,0.948,1.284,1.588,1.934,2.226c1.3,1.272,2.259,2.235,3.558,3.519c1.283,1.268,2.25,2.543,3.549,3.827
		c0.648,0.626,1.284,1.268,2.258,1.9c0.967,1.281,2.251,2.23,3.549,3.507l0.324,0.319c0.976,0.97,2.258,2.237,3.55,3.514
		c3.231,2.864,6.78,6.055,10.337,9.24c0.959,0.647,1.608,1.282,2.25,1.918c4.849,4.459,10.014,8.612,15.495,13.074h0.324
		c2.265,1.915,4.522,3.825,7.105,5.741c1.614,1.269,3.225,2.226,4.521,3.498c2.582,1.918,5.158,3.826,7.74,5.75
		c0.324,0.32,0.974,0.636,1.298,0.947c0-0.313,0.318-0.627,0.643-0.947c0.649-1.28,1.291-3.191,1.935-5.43
		c0.324-0.627,0.647-1.268,0.647-1.916c0.649-1.268,0.975-2.537,1.291-4.14c0.325-0.948,0.644-2.237,0.644-3.192v-0.313
		c0.648-1.916,0.648-3.834,0.974-5.744c0-0.954,0.324-2.223,0.324-3.506v-3.824L291.18,428.548L291.18,428.548z"/>
</g>
</svg>
