<?xml version="1.0" encoding="utf-8"?>
<!-- Generator: Adobe Illustrator 15.0.2, SVG Export Plug-In . SVG Version: 6.00 Build 0)  -->
<!DOCTYPE svg PUBLIC "-//W3C//DTD SVG 1.1//EN" "http://www.w3.org/Graphics/SVG/1.1/DTD/svg11.dtd">
<svg version="1.1" id="Layer_1" xmlns="http://www.w3.org/2000/svg" xmlns:xlink="http://www.w3.org/1999/xlink" x="0px" y="0px"
	 width="102.954px" height="246.998px" viewBox="0 0 102.954 246.998" enable-background="new 0 0 102.954 246.998"
	 xml:space="preserve">
<g>
	<path fill="#FFFFFF" d="M34.558,69.21c6.367,0,12.902-0.865,19.271-1.375v34.693C59.67,82.16,72.063,65.247,99.4,65.247
		c-1.379,13.292-2.239,26.054-1.379,38.146l-2.575,2.24c-3.609-2.414-9.81-3.635-14.287-3.635c-12.188,0-22.35,6.397-25.625,18.482
		c-2.553,8.115-1.699,23.647-1.699,32.607v50.762c-6.375-0.705-12.91-1.57-19.271-1.57c-6.354,0-12.903,0.865-19.256,1.57V67.835
		C21.654,68.352,28.204,69.21,34.558,69.21"/>
</g>
</svg>
